<?xml version="1.0" encoding="utf-8"?>
<!-- Generator: Adobe Illustrator 19.1.0, SVG Export Plug-In . SVG Version: 6.00 Build 0)  -->
<svg version="1.1" id="Layer_1" xmlns="http://www.w3.org/2000/svg" xmlns:xlink="http://www.w3.org/1999/xlink" x="0px" y="0px"
	 viewBox="0 0 1255 396" style="enable-background:new 0 0 1255 396;" xml:space="preserve">
<style type="text/css">
	.st0{fill:#98A3A3;}
</style>
<g>
	<path class="st0" d="M767.9,249.9c0,2.5,1.3,5.2,3.9,4.8c2.9-0.5,5.8-2.8,8.6-3.8c3.2-1.1,6.4-1.6,9.4-3.3c0.4-0.2,0.3-1.3-0.2-1.1
		c-3.7,1.5-7.7,2.3-11.4,3.9c-1.7,0.7-3.4,2.1-5.2,2.5C769.9,253.6,769.3,252,767.9,249.9C767.9,249.9,767.9,249.9,767.9,249.9z"/>
	<path class="st0" d="M771.8,246.7c-5.3-17.8-12.2-35-19.2-52.1c-0.4-0.9-2.5-0.3-2.2,0.6c7,17.2,13.9,34.4,19.2,52.1
		C770,248.3,772.1,247.7,771.8,246.7z"/>
	<path class="st0" d="M794.8,243.6c-0.3-0.6-0.7-2.2-1.4-2.4c0,0,0,0-0.1,0c-0.3,1,0.5,2.3,0.9,3.2c0.6,1.4,1.3,2.8,2.3,4
		c0.5,0.6,0.8-0.5,0.6-0.9C796.3,246.3,795.5,245,794.8,243.6z"/>
	<path class="st0" d="M799.5,211.9c-1.9,0.9-3.8,1.9-5.6,3c-1.9,1.1-4,2.9-6.1,3.7c-2,0.7-2-0.9-2.6-2.8c-0.8-2.2-1.6-4.4-2.7-6.6
		c-0.2-0.5-0.6,0.1-0.5,0.4c1.4,3.6,3,7.1,3.8,10.9c0.1,0.2,0.3,0.6,0.6,0.5c4.5-2.5,9-5.3,13.2-8.3
		C799.9,212.5,799.8,211.8,799.5,211.9z"/>
	<path class="st0" d="M772.6,162.1c-0.5,0.7-1.1,1.2-1.8,1.7c-0.6,0.4-1.5,0.6-2,1.1c0,0,0,0.1,0,0.1c0.7,0.3,1.7-0.4,2.3-0.7
		c0.7-0.5,1.3-1.2,1.7-1.9C772.9,162.3,772.7,161.9,772.6,162.1z"/>
	<path class="st0" d="M774,165.5c-0.5,0.5-1,0.8-1.7,0.9c-0.2,0-0.2,0.1-0.3,0.3c0,0.1-0.1,0.2-0.1,0.3c0,0.1,0,0.1,0.1,0.2
		c0,0.1,0.2,0.3,0.3,0.3c1,0,2.8-0.7,2.5-1.9C774.7,165.1,774.3,165.2,774,165.5z"/>
	<path class="st0" d="M779.2,176.4c0.8,0.3,1.8,0.1,2.5-0.1c0.4-0.1,0.4-1,0-0.9c-0.8,0-1.8,0.1-2.5,0.5
		C779,176,779,176.3,779.2,176.4z"/>
	<path class="st0" d="M988.7,189.7c1.2,1.6,7.7,2.2,9.7,2.6c3.2,0.7,6.5,1.2,9.8,1.6c6.3,0.7,8.3-0.6,10.8-6.2
		c0.6-1.3,4.9-7.9,1.4-8.7c-0.9-0.2-1,1.6-0.3,1.8c0.5,0.1-1.7,4.9-1.8,5.1c-1.3,3-1.9,5.8-6.3,6.7c-2.8,0.5-6.4-0.5-9.1-0.8
		c-3.6-0.5-7.8-0.7-11.2-2.1c-2.5-1-2.2-0.7-1.7-3.5c0.3-1.9,1.5-3.8,2.1-5.6c0,0,0-0.2-0.1-0.1C991,182.4,987.2,187.7,988.7,189.7z
		"/>
	<path class="st0" d="M1028,206.8c0.3-0.8-0.7-2.1-1.1-0.9c-1.5,4.5-5.1,5.1-9.1,5.2c-3.4,0-6.7-0.1-10.1-0.3
		c-6.4-0.5-12.6-2-18.9-2.9c-0.1,0-0.1,0.1,0,0.2c7.8,3.3,17,4.3,25.4,4.7C1020.8,213,1025.7,213.7,1028,206.8z"/>
	<path class="st0" d="M1005.6,160.8c-3.2,4.4-4.6,10-4.9,15.3c-0.1,1.4,1.6,1.9,1.9,0.3c0.8-5,2.5-9.4,4.5-14
		C1007.6,161.6,1006.6,159.5,1005.6,160.8z"/>
	<path class="st0" d="M987.4,177.1c1.7-2.7,2.7-4.1,2.2-7.5c-0.4-2.9-1.1-5.6-2.8-8c0-0.1-0.1,0-0.1,0.1c1.1,2.8,1.3,5.5,1,8.5
		c-0.2,2-1.3,3.3-1.9,5.1C985.4,176.2,986.4,178.6,987.4,177.1z"/>
	<path class="st0" d="M946.7,180.7c1-0.1,2,0.1,2.9,0.5c1,0.4,1.6-0.8,1.6-2c0,0,0,0,0,0c0-0.3-0.1-0.6-0.2-0.9c0,0,0-0.1-0.1-0.1
		c0,0,0-0.1,0-0.1c0-0.1-0.1-0.1-0.1-0.2c0,0,0,0,0,0c0-0.1-0.1-0.2-0.2-0.2c0,0,0,0,0,0c-0.1-0.1-0.1-0.1-0.2-0.2
		c-0.1-0.1-0.2-0.1-0.2-0.1c-1.2-0.4-2.3-0.5-3.6-0.3c-0.8,0.2-1.2,1-1.1,1.8C945.5,179.5,945.8,180.7,946.7,180.7z"/>
	<path class="st0" d="M932.5,183c6.5,1.3,12.9,3,19.4,4c3.1,0.5,5.6,0.4,6.7-2.7c0.3-0.8-0.6-1.9-1-0.9c-1.6,4.1-16.9,0-20.2-0.5
		c-1-0.1-2.8,0-3.4-0.9c-0.7-1.1,0.5-2.3,1.1-3.5c0.7-1.6,1.3-3.2,1.7-4.9c0-0.1-0.1-0.2-0.1-0.1c-1.3,3-2.6,6-4.3,8.7
		C932.2,182.5,932.2,183,932.5,183z"/>
	<path class="st0" d="M932,170.3c0.4,0.1,0.6-0.3,0.6-0.6c0.1-0.9,0.3-1.7-0.1-2.5c-0.1-0.1-0.2-0.2-0.3-0.1
		c-0.6,0.5-0.6,1.5-0.7,2.2C931.6,169.6,931.6,170.1,932,170.3z"/>
	<path class="st0" d="M919.1,177.1c1.3,0.7,3.7,1,4.9,0c0.8-0.7,0.6-2.3-0.3-2.8c-0.7-0.4-1.6-0.2-2.4-0.1c-0.7,0.1-1.6,0.3-2.3,0.6
		C918.3,175.3,918.4,176.7,919.1,177.1z"/>
	<path class="st0" d="M919.8,182.5c3.5,0.5,8.2,1.8,11.3-0.3c0.4-0.3,0.2-1.6-0.4-1.4c-3.6,1.5-9.1-0.1-12.8-0.5
		c-4.3-0.5-8.6-1-12.9-1.5c-0.1,0-0.1,0.2,0,0.2C909.8,180.6,914.7,181.8,919.8,182.5z"/>
	<path class="st0" d="M892.2,172.8c-1.3,0.1-2.6,0.1-3.8,0.3c-1,0.2-0.9,1.8-0.1,2.2c1.2,0.6,2.8,0.7,4.1,0.6
		C893.7,175.8,893.6,172.7,892.2,172.8z"/>
	<path class="st0" d="M791.4,233.3c1.9,0.3,3.7,0.6,5.5,0c0.9-0.3,0.8-2.6-0.3-2.5c-1.7,0.1-3.4,0.6-5.1,0.9
		C790.8,231.8,790.7,233.2,791.4,233.3z"/>
	<path class="st0" d="M804.2,230.2c0.3-0.6,0.6-1.2,1-1.7c0.4-0.6,0.9-1,1.1-1.7c0.1-0.3-0.1-1.3-0.6-1.2c-0.8,0.1-1.1,1-1.4,1.6
		c-0.4,0.7-0.7,1.5-0.9,2.3c-0.1,0.3-0.1,0.8,0.2,1C803.8,230.7,804.1,230.5,804.2,230.2z"/>
	<path class="st0" d="M978.8,208.4c0.7,0.1,0.7-1.5,0.1-1.6c-10.1-2.4-20.5-3.8-30.7-5.7c-13.8-2.5-27.9-2.5-41.7-4.7
		c0,0,0,0.1,0,0.1c14,3,28.3,4.1,42.4,6.6C958.9,204.9,968.9,206.7,978.8,208.4z"/>
	<path class="st0" d="M860.2,132.9c1.3-0.8,2.3-3.1,2.1-4.6c-0.1-0.5-0.5-1-0.8-0.3c-0.3,0.7-0.4,1.5-0.6,2.2
		c-0.3,0.8-0.6,1.5-0.9,2.3C859.9,132.6,860,133.1,860.2,132.9z"/>
	<path class="st0" d="M817.9,120.9c1,0.5,2-0.1,2.5-0.9c0.7-1.1,0.8-2.6,0.6-3.9c-0.2-1.1-1.2-0.6-1.2,0.3c0,0.9,0,1.8-0.4,2.6
		c-0.4,0.7-1,1.1-1.6,1.6C817.8,120.6,817.8,120.8,817.9,120.9z"/>
	<path class="st0" d="M822,121.2c0.7-1.2,1-2.6,0.7-3.9c-0.1-0.7-0.8-0.4-0.8,0.2c0,1.2,0.1,2.4-0.1,3.6
		C821.8,121.2,821.9,121.4,822,121.2z"/>
	<path class="st0" d="M794.8,118c0.9-0.7,1.5-2.3,1.2-3.5c-0.1-0.2-0.4-0.5-0.7-0.4c-0.9,0.5-0.6,1.8-1.4,2.4
		c-0.9,0.7-2.3,0.3-3.3,0.7c-0.2,0.1-0.1,0.5,0.1,0.5C792.1,117.7,793.5,119.1,794.8,118z"/>
	<path class="st0" d="M796.2,117.9c0,0.2,0.1,0.7,0,0.9c-0.2,0.4-0.9,0.3-1.3,0.4c-1,0.1-2,0.2-2.8,0.7c0,0,0,0.1,0,0.1
		c0.7,0.6,1.4,0.8,2.3,0.9c0.7,0.1,1.6,0.3,2.2-0.1c1.1-0.6,1.2-2.2,1-3.3C797.5,116.2,796.2,116.7,796.2,117.9z"/>
	<path class="st0" d="M809,167.4c2.6,0,5.1-0.2,7.7,0.6c1.3,0.4,2.3,0.6,3.6,0.6c0.4,0,1.4-0.2,1.5-0.7c1-2.7,2.4-5.1,4.2-7.4
		c0.5-0.6-1.6-0.3-2,0.1c-1.7,2.1-3.1,4.4-4.1,6.9c-1.4-0.2-2.7-0.9-4.1-1c-1.6-0.2-3.4-0.1-5-0.1c1.8-2,4.1-4,5.4-6.3
		c1.3-2.3,1.6-5.5,2.4-8c0.2-0.5-2-0.2-2.2,0.4c-0.8,2.6-1.2,5.6-2.5,7.9c-1.4,2.4-3.8,4.5-5.6,6.6
		C808.2,167.4,808.8,167.4,809,167.4z"/>
	<path class="st0" d="M816.4,161.4c0.9,0.2,1.9,0.2,2.9,0.2c1.1,0.1,2.2,0.2,3.3,0.2c0.4,0,0.4-0.9,0.1-1c-1.9-0.4-4.4-0.4-6.3,0.1
		C816.2,161,816.2,161.4,816.4,161.4z"/>
	<path class="st0" d="M742.8,167.3c-0.2,0-0.2,0.3,0,0.4c2.2,1,4.7,1.3,7.1,1.7c2.7,0.5,5.5,1,8.3,1c0.6,0,0.6-1.3,0.1-1.4
		c-2.4-0.5-4.8-0.8-7.2-1.1C748.4,167.6,745.5,166.9,742.8,167.3z"/>
	<path class="st0" d="M850.5,189.7c-12.1-1.8-24.1-4.3-36.2-6.1c-0.6-0.1-2.5,0.9-1.4,1.1c12.1,1.8,24.1,4.3,36.2,6.1
		C849.7,190.9,851.6,189.9,850.5,189.7z"/>
	<path class="st0" d="M851.6,162.5c0.3-0.3,0.2-1,0.2-1.3c0-0.6-0.7-0.6-0.6,0C851.1,161.3,851.2,162.8,851.6,162.5z"/>
	<path class="st0" d="M747.3,178.5c5.6,2.3,12.6,3.2,18.5,2.5c0.4-0.1,0.4-1,0-1c-6.3-0.5-12.3-1.2-18.5-2.1
		C747.1,177.9,747.1,178.5,747.3,178.5z"/>
	<path class="st0" d="M823.9,128.5c2.5,1,4.8,3.4,6.7,5c1,0.8,1.9,1.8,3,2.6c1,0.7,2.2,1.1,3.2,2c1.2,1,1.6-1.7,0.9-2.4
		c-1.1-1.1-2.5-1.6-3.7-2.5c-1.6-1.2-3-2.5-4.6-3.7c-1.1-0.8-2.4-1.7-3.7-2.1c1.7-1.8,2.8-4.2,3-6.6c0.1-0.7-0.6-1.1-0.8-0.3
		c-0.5,2.4-1.5,4.7-3.3,6.3c-0.2,0.2-0.4,0.3-0.6,0.4c-0.5,0.1-1.1,0.2-1.6,0.6c-1.4,0.2-3-0.1-4.5-0.3c0,0,0,0.1,0,0.1
		C819.8,128.1,822,129.2,823.9,128.5z"/>
	<path class="st0" d="M927.2,135.4c0.3,0,0.3-0.8,0-0.8c-1.1-0.1-2.2-0.3-3.4-0.5c-0.1,0-0.1,0.1,0,0.1
		C924.9,134.8,926,135.2,927.2,135.4z"/>
	<path class="st0" d="M926.9,137.8c0.5,0,0.4-1,0-1c-0.5,0-1.1,0.1-1.6,0.1c-0.5,0-0.9,0-1.4,0.1c-0.1,0-0.1,0.3,0,0.3
		C924.7,137.8,925.9,137.9,926.9,137.8z"/>
	<path class="st0" d="M924.7,140.9c0.4,0.2,1,0.5,1.5,0.3c0.3-0.2,0.3-0.8,0.1-1c-0.4-0.3-0.8-0.3-1.3-0.4c-0.4-0.1-0.8-0.4-1.2-0.4
		c-0.2,0-0.2,0.3-0.2,0.5C923.8,140.4,924.3,140.7,924.7,140.9z"/>
	<path class="st0" d="M743.7,159.2c-11.6-2.7-23.7-3.3-35.5-1.5c-12.9,2-25.4,6.5-37.8,10.6c-14,4.6-28,9.6-42.3,13.4
		c-12.8,3.4-26,5.2-39.2,6.9c-22.6,2.9-45,4.2-67.8,3.8c-28.6-0.5-57.2-1.6-85.8-3.1c-33.7-1.7-67.4-4.2-101-7.5
		c-24.3-2.4-49-4.3-73-9.1c-16-3.2-31.4-8.7-47-13.5c-21.7-6.6-43.4-13-65.2-19.3c-23.5-6.7-47.1-13.4-70.7-19.7
		c-15.9-4.2-31.8-8.7-47.9-11.8c-1.8-0.4-3.7-0.7-5.6-0.9c-1.1-0.1-5,1.8-2.7,2c13.4,1.3,26.9,5.8,39.8,9.1
		c22.6,5.9,45.2,12.2,67.7,18.6c22.8,6.5,45.6,13.1,68.3,19.9c16.2,4.9,32.3,10.6,48.7,14.8c19.5,5,39.6,7.2,59.6,9.3
		c33.2,3.5,66.4,6.5,99.7,8.6c30.7,1.9,61.5,3.3,92.2,4.1c20.8,0.6,41.5,1.2,62.3-0.5c26.2-2.2,52.7-5.2,78-12.8
		c14.3-4.4,28.4-9.4,42.7-13.9c15-4.8,29.8-8.9,45.7-7.7c4.5,0.4,9,1,13.4,2.1C741.4,161.3,745.2,159.5,743.7,159.2z"/>
	<path class="st0" d="M876.2,185.1c1.6-0.1,3.2-0.1,4.8,0.2c0.5,0.1,1.2,0,1.5-0.4c0.3-0.3,0.3-0.8-0.2-0.9c-2-0.3-3.9-0.5-5.9-0.3
		C875.3,183.7,874.7,185.2,876.2,185.1z"/>
	<path class="st0" d="M1243.8,257.7c-3.9,3.2-9.9,1.4-14.3,0.7c-3.5-0.6-7-1.2-10.5-1.5c-5.4-0.4-10.5,0-15.6,1.7
		c-0.5-0.8-1-1.5-1.5-2.2c9.7-4.1,19.5,0.1,29.5,0.8c4.6,0.3,9.8-0.1,12.3-4.5c0.6-1-1.6-0.9-2.1-0.2c-4,7.2-19.4,1.5-25.6,0.8
		c-5.2-0.5-10.1-0.1-14.9,1.9c-3.3-4.6-7.1-8.8-12-12.2c4.8-3,9.6-5.9,14.3-8.9c0.2,0,0.4,0,0.6,0c8.9,0.6,18.1-0.5,27.1-0.5
		c0.8,0,2.3-1.2,0.9-1.2c-8.9,0-18.2,1.1-27.1,0.5c-0.2,0-0.4,0-0.6-0.1c-0.1-0.2-0.3-0.3-0.6-0.3c-3.1-0.3-6.2-0.5-9.3-0.8
		c-8.2-1.1-16.3-2.7-24.5-3.7c-11-1.3-21.4-1-32.4,0.4c-12.6,1.5-25,4.5-37.8,2.7c-0.2-1.1-0.4-2.2-0.6-3.3c2.2-0.3,4.9,0.4,7,0.5
		c2.9,0.2,5.9,0.3,8.8,0.2c5-0.2,10-1.2,14.9-2c11.7-1.8,24-3.9,35.9-2.9c11.6,1,23.1,3.4,34.7,4.5c10.1,1,20.2,0.5,30.4,0.5
		c0.5,0,2.5-0.9,1.4-0.9c-7,0-14,0.2-21,0c1.8-0.9,3.4-2.4,5.2-3.2c4.9-2,10.5-3,15.7-4.5c1.3-0.4,0.9-2-0.4-1.6
		c-6.5,1.8-13.9,2.9-19.7,6.5c-0.8,0.5-1.5,1.1-2.2,1.6c-0.1,0-0.3,0-0.5-0.1c-2.5-0.5-5.3-0.4-7.8-0.6c-1.6-0.1-4.7,0.3-6.2-0.5
		c1.2,0.6,2.7-0.7,4.4-1.7c2.4-1.4,4.8-2.7,7.2-4c5.9-3.2,12.5-5.2,19.1-6.5c0.6-0.1,0.8-0.5,0.8-0.9c0.8,0.7,1.6,1.4,2.5,2.1
		c0.6,0.5,2.6-0.3,2-0.8c-6.5-5.7-13.4-12-21.3-15.7c-11.4-5.3-23.8-7.5-36.2-5.7c-10,1.4-19.5,5.4-29.1,8.2c-9,2.6-18.1,5-27.1,7.5
		c-6.5,1.8-13.9,3-20.3,5.6c-0.2-1.1-0.4-2.2-0.6-3.4c0,0,0,0,0-0.1c10-3.5,20.1-6.8,30.3-9.5c6.8-1.8,13.4-3.9,20-6
		c0.2,0,0.4,0.1,0.6,0c1.4-0.1,3.1-1.1,4.5-1.6c2.6-0.8,5.2-1.6,7.9-2.3c14.4-4.1,31.2-4.5,45.5,0.6c8.4,3,15.7,8.6,22.8,13.9
		c0.6,0.4,2.5-0.4,2-0.8c-5-3.7-10-7.5-15.4-10.5c0.4-0.1,0.9-0.2,1-0.4c4.4-4.6,11.9-9.5,18.2-10c0.6,0,2.4-1,0.9-0.9
		c-7.7,0.6-15.6,5.4-20.9,10.8c-0.6-0.3-1.2-0.7-1.9-1c-0.5-0.2-0.9-0.5-1.4-0.7c6.2-6,13.6-9.9,22.1-11.6c1.3-0.3,1-1.3-0.3-1
		c-8.8,1.8-16.7,5.9-23.2,12c-6.8-2.8-14.1-4-21.5-4.4c0.2-0.1,0.3-0.3,0.2-0.4c-3.3-6-8.1-9.9-14.8-11.3
		c-10.7-2.2-22.9-1.8-33.5,0.6c-1,0.2-2.1,0.5-3.1,0.8c-2.8-4.1-5.5-8.3-8.3-12.4c-0.1-0.1-0.2-0.1-0.4-0.1c2.7-2.5,5.9-4.6,8.6-7.1
		c9.8,1.1,19.4,3.3,28.7,6.6c9.2,3.3,17.9,8.1,27.4,10.7c8.7,2.4,17.8,3,26.7,3.8c7.3,0.6,14.8,1.7,21.9-1c1.4-0.5,0.1-0.8-0.8-0.5
		c-8.8,3.3-21.3,0.6-30.5-0.4c-9.7-1-18.6-3.3-27.5-7.1c-14.7-6.2-29-11.3-44.9-13.1c0.7-0.7,1.3-1.4,1.9-2.1
		c6.5,0.9,12.9,2.4,19.2,4.1c10.2,2.9,19.6,7.6,29.5,11.4c9.1,3.5,18.7,5.2,28.4,6.1c8.5,0.7,17.8,1.2,26-1.5c1.3-0.4,1-1.7-0.3-1.3
		c-9.3,3-20,2-29.5,0.9c-10.5-1.3-20.1-4.1-29.8-8.2c-13.7-5.8-27.5-10.7-42.3-12.8c3.3-3.9,6.3-8.1,9.4-12
		c7-8.9,15.5-15.1,25.6-20.1c1,0.4,2,0.8,3,1.3c17.1,7.2,35.7,14.6,49.6,27.3c0.5,0.5,2.5-0.4,2-0.8c-13.7-12.4-31.8-19.8-48.6-26.9
		c-15.3-6.4-30.7-12.8-46-19.2c-0.6-0.2-2.6,0.6-1.8,1c11.7,4.9,23.3,9.7,35,14.6c-2.9,0.8-6.4,4-8.7,5.6
		c-10.1,6.9-17.3,15.9-25.5,24.9c-0.6,0.7-1.3,1.4-1.9,2c-3.5-0.8-6.9-0.9-10.5-0.5c-0.2,0-0.3,0.1-0.5,0.1c-1.4-2.8-2.8-5.5-4.6-8
		c-3.1-4.4-6.8-8.4-10.5-12.3c0,0-0.1-0.1-0.1-0.1c-0.1-0.1-0.2-0.3-0.4-0.4c5.7-10.3,15.6-19.4,25.1-25.6c3.2-2.1,6.4-3.6,9.8-4.5
		c0.1,0.1,0.3,0.2,0.6,0.2c4.9,0.7,10.2,3.5,14.9,5.1c8.3,3,16.5,6.1,24.6,9.7c16.6,7.3,32.8,15.5,47.9,25.5
		c0.2,0.1,0.5,0.2,0.8,0.1c0.8,0.5,2.5-0.6,1.6-1.3c-10.8-8.8-21.4-18-33-25.6c-16.6-10.9-38.5-21.6-58.8-15.1
		c-9.2,2.9-17.1,9.9-23.8,16.6c-3.6,3.7-7.3,7.6-10.1,11.9c-3.7,5.6-5.8,12.1-7.7,18.5c-3.2,11-5.8,22.3-6.4,33.8
		c-0.6,12,0.4,24.2,2.3,36.1c0.9,5.9,2.4,11.7,3.5,17.5c-1.6-0.7-3.3-1.4-4.9-2.1c-2.8-11.8-5.1-23.9-6.1-36
		c-1.4-17,1.5-35.1,6.3-51.5c4.6-15.5,15.2-27.9,27.1-38.5c1.8-1.7,3.7-3.1,5.6-4.4c1.2-0.5,2.4-1.3,3.5-2.2
		c5-2.8,10.3-4.5,16.7-5.4c12.2-1.8,23.8-0.3,35.2,4.3c11.2,4.6,21.1,11,29.8,19.4c4.9,4.6,10.6,9.5,17,11.8
		c0.5,0.2,2.5-0.6,1.8-0.9c-7.2-2.6-13.1-8.4-18.6-13.5c-2.6-2.4-5.3-4.6-8.1-6.6c1.8-0.5,3.4-1.3,5.2-1.9c3.4-1,6.9-1.6,10.4-2.4
		c5.5-1.2,11.2-2.3,16.7-3.8c0.4-0.1,0.3-1.2-0.1-1.2c-6.8,1.2-13.5,2.9-20.2,4.4c-4,0.9-9.4,1.3-12.2,4.6c-1.4-1-2.8-2-4.3-2.9
		c12.5-5,25.1-8.7,38.5-10.1c0.5-0.1,0.5-1.2,0-1.2c-13.6,1.5-27.1,4.8-39.5,10.7c-4.4-2.7-9-5-13.8-7c-9.9-4.1-19.8-6-30.6-5.3
		c-6.7,0.4-14.1,1.4-20.6,4c0-0.2-0.2-0.4-0.5-0.5c-22.5-6.2-48.4-6.2-70.9-0.6c-13.1,3.2-26.5,9.2-37,17.6
		c-1.6,1.3-3.2,2.7-4.7,4.1c-0.3-0.1-0.5-0.1-0.7,0c-6.6,1.5-13.3,3.4-19.5,6.2c-0.6,0.3-1.1,0.5-1.7,0.8
		c-11.2-16.4-25.5-36-20.7-57.1c0.9-4,2.5-7.9,5.1-11.1c1.2-1.5,2.5-2.7,3.9-3.8c1.6,0.6,2.7,0.6,4.5,0.3c1.8-0.4,1.5-1.4,3.8-0.7
		c1.3,0.4,2.1,1.8,3.6,2.1c2.4,0.5,4.5-1.1,6.6-2.2c4.2-2.2,8.4-4.4,12.5-6.7c3-1.7,3.1-3.5,2.3-6.5c0.2,0,0.4,0,0.6-0.1
		c2.3-0.9,5.3-1.6,7.4-3c1.5-1,0.6-2.3,0.1-3.8c-0.2-0.5-0.9-0.5-1.3-0.4c-3.5,1.2-7,2.5-10.5,3.9c-1.9-0.6-3.8-1.2-5.8-1.8
		c2.2-0.9,4.7-1.6,6.7-2.7c1.6-0.9,0.7-2.1,0.2-3.6c-0.2-0.5-1.2-0.1-1.5-0.1c-3.5,1.2-7,2.5-10.4,3.8c-0.3,0.1-0.5,0.3-0.6,0.4
		c-1.1-0.5-2.1-0.9-3-0.9c-2.6,0-5.9,1.9-8.2,3c-2.7,1.2-6.5,2.1-6.7,5.4c-0.1,0.9,0.6,2.4,0.3,3.3c-0.3,0.8-1.8,1.4-2.4,2.1
		c-1.4,1.6-1.6,2.7-1.2,4.8c-0.1,0.1-0.1,0.1-0.2,0.2c-0.1,0.1,0,0.2,0.1,0.2c-12.5,7.3-16,22.4-13.3,35.9c3.1,15.6,12,30.2,22.5,42
		c-1.7,0.9-3.5,1.9-5.2,2.8c-1.7,0.9-4.3,2-5.7,3.6c-0.6-3.8-2.2-7.7-4.3-10.2c-4.6-5.2-11.3-4.9-16.8-1.8c-2.4-3.4-4.9-4.3-9.7-2.6
		c-0.5,0.2-1,0.4-1.3,0.7c0.1-1.5-0.1-3-0.3-4.4c-1.2-6.2-7.1-10.8-13.6-8.9c-7.8,2.4-10.3,13.2-10.8,20.5c-0.2-0.1-0.5,0.1-0.6,0.6
		c0-0.1-1.9,1.2-2.1,1.6c-0.5,1-0.3,2.6-0.3,3.7c0,0.7,0,1.4,0,2.1c-4.6-6.4-14.1-11.7-21.7-10.3c-7.6,1.4-15.8,8.5-20.5,15
		c-0.9-1.4-1.8-2.8-2.7-4.2c-0.2-0.3-0.3-0.6-0.5-0.9c0.3-0.1,0.5-0.3,0.5-0.4c1.3-7.4,2.6-15,5.1-22.2c1.5-4.3,3.9-8.2,5.7-12.4
		c2.2-5.1,3.5-10.4,4.4-15.8c3.3-18.8,0.4-36.8-14.3-50.4c-12.8-11.8-32.3-10.2-45.8-0.8c-13.4,9.4-24.5,22.1-35,34.6
		c-4.7,5.5-9.8,11.5-12.4,18.3c-1.8,4.8-3.3,10.4-3.2,15.6c0.1,3.9,1.4,6.8,2.7,10.3c-0.5,0.2-0.9,0.5-1.2,1
		c-1.2,2.4,3.5,5.4,4.7,6.8c1.6,1.9,2.8,4.7,4.9,6c-0.1,0.2-0.1,0.5,0,0.6c0.5,0.8,0.1,1.8,0.6,2.7c0.6,1,1.6,2.1,2.4,3
		c-0.1,0.1-0.1,0.1-0.2,0.2c-0.2,0.7-0.2,1.4,0,2c-0.1,0-0.2,0.1-0.2,0.3c-0.3,3.7-0.3,7.5-0.5,11.2c0,0.3,0.2,0.8,0.5,0.9
		c7.8,2.7,16.4,4.9,24.7,5c0.3,0.5,0.6,0.9,0.9,1.4c0,0,0,0,0,0c-13.2-3.4-27.6-4.1-41.1-5.7c-3.3-0.4-6.5-0.8-9.8-1.2
		c-2.4-0.3-5.5-1.3-7.9-0.7c-1.6,0.4-2.5,1.5-3.4,2.7c-1.5,2-2.8,4-4.3,6c-23.7-4-49.9-4.1-72.9,3.2c-20.1,6.3-39.4,14.3-59.9,19.3
		c-31.5,7.6-63.8,9.6-96.1,9.4c-27.6-0.1-55.1-1.2-82.6-2.7c-59.8-3.3-120.2-8-179.1-19.3c-28.2-5.4-55-15-82.4-23.6
		c-30-9.3-60.1-18.1-90.6-25.7c-17.5-4.4-35.2-8.5-53-11.7c-6.8-1.2-14.1-3-21-3.1c-0.3,0-0.5-0.1-0.8-0.1c-1.8-0.1-4.6,2.5-1.6,2.7
		c19.8,1.4,39.7,6.5,58.9,11.1c27.5,6.5,54.7,14,81.7,22.1c18.8,5.6,37.5,11.5,56.1,17.6c11.4,3.7,22.8,7.3,34.5,10
		c56,12.7,114.2,17.3,171.3,21.2c29,1.9,58,3.3,87,3.9c30.4,0.6,60.8,0.4,90.9-4.1C618,178,641.1,171.2,664,163
		c10.7-3.8,21.3-7.8,32.6-9.6c15.4-2.4,31.1-2.1,46.5-0.4c2.7,0.3,5.4,0.6,8,1.1c-3.4,3.5-8.4,6.1-11,10c-2.1,3.1-1.1,5.9,0.1,9.1
		c0.7,1.9,1.3,3.7,1.6,5.7c0.3,1.6,0,3.5,0.6,5c0.4,1.2,0.4,1.8,1.5,2.6c2.5,1.9,6.8,2.1,10.6,1.9c-2.2,0.7-4.4,1.5-6.4,2.6
		c-1.3,0.7-2.5,1.7-3.1,3c-3.3-0.5-6.3,1.4-7.3,4.7c-0.1,0.3-0.1,0.5-0.2,0.8c-0.3,0-0.7,0.1-0.8,0.2c-3.8,2.2,0,9.1,1.1,12
		c2.4,6.8,5.3,13.5,8.5,19.9c2.9,5.8,5.9,11,7.8,17.2c1.4,4.8,3.5,8.9,8.8,9.6c0.2,0,0.8-0.2,1.3-0.4c0.9,0.9,1.8,1.6,2.8,2
		c2.2,0.8,5.1-0.2,7.2-0.7c6.4-1.6,13.8-3.9,19.4-7.6c1.2-0.8-0.5-1.6-1.5-1c-4.2,2.8-9.6,4.4-14.3,5.9c-2.4,0.8-5.3,1.9-7.9,1.9
		c-4,0-6.4-5.5-8.2-8.5c-4.8-8.2-8.1-17.1-11.7-25.8c-1.5-3.7-3.1-7.4-4.9-11c-1-2-2.1-3.9-3.1-5.9c-1.2-2.2-6-13.2,2.6-11.7
		c0.1,0,0.1,0,0.2,0c-0.1,3.4,2.4,7.8,3.6,10.9c1.7,4.6,3.5,9.3,5.4,13.9c3.7,9.2,7.8,18.2,12.2,27.1c0.3,0.6,2.4-0.2,2.2-0.6
		c-6.2-12.5-11.8-25.2-16.6-38.3c-1.2-3.2-2.4-6.4-3.4-9.6c-0.5-1.5-1.6-3.6-0.9-5.2c0.3-0.7,1.2-1.3,2.2-1.9
		c6.5-1.7,12.8-4.2,19.1-6.7c7.3-2.9,14.7-5.2,22-7.9c2.4,0.5,4.4,2.7,5.3,4.7c0,0.1,0,0.1,0,0.2c0.5,1.3,0.6,1.7,0.9,2
		c1.5,3.6,2.9,7.1,5,10.4c-1,0.2-2,0.4-3.1,0.6c-0.2,0-0.6,0.1-0.9,0.4c-0.4-1-1.1-1.7-2.3-2.5c-2.7-1.9-4.7-3.1-6.7-6
		c-0.2-0.2-0.7-0.1-0.9-0.1c-4.7,0.8-9.4,2-13.7,3.9c-1.1,0.5-2.5,0.9-3.2,1.9c-0.2,0.3,0.1,0.3-0.1,0.9c-0.8,2.5,0.4,2.9-2,4.5
		c-4.1,2.8-3.6,5-1.7,9.7c2.6,6.4,5.2,12.8,7.8,19.2c1.4,3.5,2.7,10.6,6.4,12c0.6,0.2,2.5,0,3.1,0.1c2.1,0.4,3.2,1.1,4.6,2.8
		c1.7,2.3,2.4,5.2,4.2,7.5c1.8,2.3,4.6,2.5,7.5,1.7c6.5,13.5,10.4,27.6,15.9,41.5c2.5,6.3,6.1,12.8,12.2,16.2
		c5.3,3,10.4,6.3,15.3,10c9.9,7.6,17.6,16.3,30,19.5c17.4,4.6,34.2,6.9,52.2,5.2c16.8-1.7,33.5-3.9,49.3-10.1
		c5.9-2.3,11.6-4.9,17.3-7.7c1.8,0.6,3.7,3.4,5,4.6c1.9,1.9,3.9,3.6,5.9,5.4c3.7,3.2,7.1,6.6,10.6,10.1c3.7,3.7,7.5,7.1,11.5,10.5
		c8.9,7.7,17.7,15.4,26.6,23.1c0.4,0.3,1.8-0.2,1.3-0.6c-9.3-8-18.5-16.1-27.8-24.1c-4.5-3.9-8.8-8.1-13.1-12.3
		c-3.7-3.7-7.7-7-11.5-10.6c-1.9-1.8-4.5-5.6-7.2-6.8c0.4-0.2,0.8-0.4,1.1-0.5c1,0.8,2.1,1.7,3.1,2.5c0.9,1,1.8,2,2.8,2.6
		c0.2,0.1,0.4,0.2,0.6,0.4c10.4,9.4,19.6,20.1,30.6,28.7c8.6,6.8,16.9,13.9,25.3,20.9c0.3,0.3,1.6-0.3,1.4-0.5
		c-8.4-7-16.7-14.2-25.3-20.9c-10.1-7.9-18.7-17.5-28-26.3c2.4,1,5,1.7,7.2,2.5c9.5,3.4,21,2.2,30.8,0.7c9.1-1.4,17.7-4.3,26.2-7.7
		c0,0.1,0.1,0.1,0.2,0.2c13.7,6.5,27.8,6.6,42.6,6.6c9,0,17.9-0.5,26.7-2.2c4.1,4.9,8.7,9.6,13.9,13.2c4.9,3.4,10.4,6,15.7,8.9
		c6,3.3,12,6.5,17.8,10.2c5.4,3.5,8.4,8.5,11.6,14.1c0.5,0.8,2.5,0,2-0.9c-2.8-4.8-5.5-9.9-10.1-13.1c-5.5-3.9-11.5-7-17.4-10.2
		c-5.4-3-10.9-5.7-16.2-9c-5.7-3.5-10.6-8.4-14.9-13.6c1.2-0.3,2.5-0.6,3.7-0.9c6.2,7,13.2,11,21.4,15.4c9.6,5.1,22.4,9.8,29.2,18.7
		c0.5,0.7,2.6-0.1,2-0.9c-6.5-8.5-18.2-12.9-27.4-17.8c-8.6-4.6-16.3-8.6-22.9-15.9c5.4-1.5,10.8-3.2,16.2-4.5
		c0.2,0,0.5-0.2,0.7-0.4c2.8,3.1,5.5,6.3,8.3,9.3c5,5.3,10.1,10.6,15.1,15.9c3.2,3.4,7.9,7.1,10.2,11.3c0.4,0.7,2.5,0,2.2-0.6
		c-1.6-3-4.7-5.5-6.9-7.9c-4.6-4.9-9.2-9.7-13.7-14.5c-10.3-10.9-19.3-23.5-33-30.1c-7.4-3.6-14.9-7-22.9-9.2
		c-7.6-2.1-15.2-2.2-23-1.7c-17.8,1.1-35.3,4.7-53,5.8c-1.8,0.1-3.5,0.3-5.2,0.6c-0.8-0.1-1.7,0.2-2.6,0.5
		c-9.8,1.9-18.7,6-28.1,10.4c-18.9,8.8-37.4,20-58.2,23.8c-18.8,3.4-39.3,6.4-58.3,3c-13.1-2.4-26.5-4.7-37-13.4
		c-6.9-5.7-13.5-11.6-21.1-16.5c-5.9-3.8-11.2-6.2-15.1-12.4c-5.4-8.6-7.7-19.3-11-28.8c-2.4-6.9-5.4-13.6-8.6-20.2
		c1.4-0.6,2.8-1.4,4.1-2.1c3.4,14,10,27.2,14.6,40.8c2.1,6.3,4.8,12.3,10.6,15.9c7.1,4.4,14,8.5,20.6,13.7c5.3,4.1,10.7,9,16.8,11.6
		c3.9,1.6,8.6,2.3,12.6,3.5c15.6,4.5,31.5,6.2,47.6,3.8c16.3-2.5,33.2-6.7,48.8-12c10.9-3.7,20.7-9.5,31-14.4
		c8.6-4,17.4-7.4,26.6-9.6c11.9-2.9,24.4-3.7,36.6-5.3c11-1.4,22.1-2.7,33.2-2.4c4.1,0.1,8.1,0.7,12.1,1.4c1.2,0.5,2.4,0.7,3.3,0.7
		c3.6,0.8,7.2,1.7,10.8,2.7c7.6,2,14.7,4.8,21.2,9.3c9.9,6.8,17.8,16,26,24.7c9.6,10.3,19.2,20.6,28.8,31c0.7,0.7,2.7-0.1,2-1
		c-7.6-8.2-15.2-16.4-22.8-24.6c-1.4-1.5-2.8-3.1-4.2-4.6c4.9,3.6,10.1,6.7,15.8,9.6c11.3,5.8,22.5,11.6,34.2,16.6
		c0.9,0.4,2.5-0.9,1.3-1.5c-11.5-4.9-22.6-10.6-33.7-16.3c-10.1-5.2-18.9-10.8-26.6-19.3c0.2,0,0.5-0.1,0.8-0.1c3-0.6,6-1.1,9-1.7
		c-0.1,0.2-0.1,0.5,0.2,0.7c15.5,10.5,32.8,17.7,50,24.8c0.9,0.4,2.5-0.9,1.3-1.5c-17-6.9-34-14.1-49.3-24.3c2-0.3,4-0.6,6-0.9
		c9.2-1.1,18.2-2.3,27.2-4.2c3.5,2.9,7,5.9,10.5,8.8c0.7,0.6,2.6-0.4,1.7-1.2c-16.9-14.4-34.9-28.3-54.1-39.5
		c-28.4-16.4-62.4-22.6-94.3-28.2c-30.3-5.3-60.9-7.8-91.4-11.8c-19.3-2.5-38.7-5.4-57.6-10.1c-14-3.5-27.6-8.1-41-13.5
		c-1.3-0.7-2.8-1.3-4.3-1.7c-0.8-0.3-1.7-0.7-2.5-1c-11.5-4.8-22.9-10.9-35-13.9c-11.7-2.9-24.9-1.1-36.6,0.7
		c-0.2,0-0.4,0.1-0.6,0.2c-0.1,0-0.1,0-0.2,0c-0.2,0-3.2,1.2-3.4,1.1c-2.3-0.1-5.2-1.5-5-4.1c0.2-2.4,2.8-4,5-4.4
		c5.4-1,0.6,0.4,3.2,0.8c0.7,0.1,1.4,0.2,2.2,0.1c-0.3,0.3,0,0.6,0.9,0.3c4.3-1,9.6-0.8,14.1-0.9c8.2-0.2,16.5,0.1,24.6,1.6
		c3.1,0.6,6.1,1.4,9.1,2.4c0,0,0.1,0.1,0.1,0.1c0.1,0.1,0.3,0.1,0.5,0.1c5.1,1.8,10,4.1,14.9,6.4c0.1,0.1,0.1,0.1,0.2,0.2
		c0.2,0.2,0.4,0.2,0.7,0.2c1.6,0.8,3.3,1.6,4.9,2.3c30.1,14,63.1,21.7,95.8,26.7c3.6,0.6,7.2,1.1,10.8,1.5c0.7,0.2,1.4,0.3,2.1,0.5
		c0.2,0.1,0.6,0,0.9-0.1c19.7,2.4,39.6,3.9,59.3,6.3c0.8,0.1,1.6,0.3,2.4,0.4c0.1,0,0.3,0,0.5,0c1.1,0.1,2.1,0.3,3.2,0.4
		c12.7,1.8,25.5,3.5,38.3,5.6c1.3,0.8,2.9,1.1,4.6,0.8c0.3,0.1,0.6,0.1,0.9,0.2c0.4,0.2,0.8,0.3,1.4,0.4c0.3,0,0.5,0,0.8,0
		c15.8,2.8,31.6,6.3,46.8,11.2c19.1,6.1,36.3,16.2,52.7,27.6c9.7,6.8,19.3,14,28.2,21.8c0.4,0.4,2.4-0.4,2-0.7
		c-1.3-1.2-2.7-2.3-4-3.5c1.8-1.5,3.7-2.9,5.5-4.4c1.2-0.9-0.6-1.7-1.4-1c-1.8,1.4-3.6,2.8-5.4,4.3c-1-0.8-1.9-1.6-2.9-2.4
		c0.2,0,0.3,0,0.6,0c2.7-0.6,5.2-1.7,7.4-3.3c1.2-0.9-0.6-1.6-1.4-1c-1.9,1.4-4,2.3-6.4,2.8c-0.7,0.1-0.9,0.6-0.8,1
		c-3.7-3-7.5-5.9-11.3-8.7c0.1-0.1,0.2-0.1,0.3-0.2c1.2-1.1,2.5-2.1,3.7-3.2c2.6,2.6,5.2,5.1,8.2,7.5c0.6,0.5,2.6-0.4,2-0.9
		c-9.6-7.8-17-16.9-23.7-27.2c-3.8-5.8-6.7-12.3-11.3-17.5c-4.9-5.5-11.2-9.7-17.9-12.6c-12.7-5.6-25.4-3.5-38.5-0.3
		c-3.6,0.9-7.1,2.1-10.7,3.1c-0.3-0.2-1.1-0.5-1.4-0.8c-1.1-1-2.5-1.8-3.8-2.5c9.3-3,18.7-4.7,28.5-5.8c7.2-0.9,14.7-1.5,21.7,0.8
		c2,0.7,3.9,1.4,5.8,2.3c2.6,1.4,5.2,2.8,7.8,4.3c0,0,0,0,0.1,0c1.2,0.8,2.4,1.6,3.5,2.5c8.7,6.6,13.8,17.7,19.5,26.7
		c5.1,8.1,11.4,18.6,20.5,22.5c0.9,0.4,2.5-0.9,1.3-1.4c-2.5-1.1-4.7-2.8-6.8-4.8c3.4-2.8,6.4-7.1,10.5-8.9c1.4-0.6,0.1-1.3-0.9-0.9
		c-4.2,1.9-7.2,5.8-10.6,8.8c-1-1-1.9-2-2.7-3.1c3.3-2.7,6.5-5.5,9.8-8.2c0.5-0.4-1.5-0.2-2,0.1c-2.9,2.4-5.7,4.8-8.6,7.1
		c-1-1.3-1.9-2.5-2.8-3.7c-3.4-4.5-6.3-9.5-9.3-14.3c-1.4-2.3-2.8-4.6-4.3-6.7c9.8-3.3,19.5-0.4,29.4,0.8c4.4,0.6,8.6,0.6,12.2-2.3
		C1246.5,257.2,1244.4,257.2,1243.8,257.7z M1186.8,108.5c1.2,0.8,2.4,1.6,3.7,2.4c-1.7,0.7-3.5,1.4-5.2,2.2c-1.3-0.5-2.6-1-3.9-1.5
		C1183.2,110.6,1185,109.6,1186.8,108.5z M1220.6,132c-11.2-6.7-22.9-12.5-34.8-17.8c2.3-0.8,4.6-1.9,6.8-2.8c0.8,0.5,1.6,1,2.5,1.5
		C1204,118.5,1212.3,125.2,1220.6,132z M1185.9,107.5c-2.2,1.3-4.4,2.5-6.7,3.8c-7.2-3-14.5-5.8-21.8-8.5c-4-1.5-8.3-3.6-12.6-4.6
		C1158.6,95.6,1173.2,100.7,1185.9,107.5z M742.4,212.9c6,11.7,9.8,24.5,16.1,36.1c1.3,2.3,2.9,6,5.1,8.5c-6-1.3-6.7-8.2-8.4-13.1
		c-1.8-4.9-4.7-9.3-7-14c-2.4-4.8-4.5-9.7-6.5-14.6c-0.8-2.2-4.8-10.3-4.2-14.1C737.8,205.6,740.7,209.5,742.4,212.9z M1038.9,334.8
		c-6.7,0.4-14.5,1.5-21.1-0.1c-4.6-1.2-9.7-3.1-13.9-5.3c-1.1-0.6-4-2.8-5.1-4.5c6.1,3,12.8,6.5,19.4,7.3
		c14.7,1.7,28.7-2.4,42.5-6.7c1-0.3,2.1-0.6,3.1-1c0.3,0,0.5-0.1,0.7-0.2c4.4-1.4,8.8-2.9,12.9-4.8c7.3-3.5,14.6-6.9,22.6-8.8
		c5.3-1.2,10.6-1.9,15.9-2.8c0.8-0.1,1.7-0.3,2.5-0.4c0.2,0,0.4,0,0.5,0c0.9,0.9,1.7,2.5,2.4,3.7c-6.2,0.5-12.4,1-18.4,2.2
		c-7,1.3-13.8,4.8-20.3,7.5c-8.7,3.6-17.2,8.3-26.4,10.7C1050.6,333.2,1044.8,334.4,1038.9,334.8z M1040.4,306.5
		C1040.4,306.5,1040.4,306.5,1040.4,306.5c0.2,0,0.5-0.1,0.7-0.1c0.4-0.1,0.8-0.2,1.2-0.2c0.1,0,0.1,0,0.2-0.1
		c0.1,0.1,0.2,0.1,0.3,0.2c3.2,2.2,6.4,4.3,9.5,6.7c2.3,1.8,4.7,3.3,7.4,4.7c2.4,1.3,5.9,2.3,8.2,4.1c-1.1,0.5-2.1,1-3.2,1.6
		c-1.5-0.8-3.4-1.1-4.9-2.1c-2.9-1.9-5.5-4.4-8.5-6.3c-3.9-2.4-7.6-5.1-11-8.2C1040.3,306.6,1040.3,306.5,1040.4,306.5z
		 M1121.8,301.3c2.2,1.3,3.6,5.1,5,7.4c4,6.3,9,11.5,14.7,16.4c-1.7,0.4-3.4,0.7-5,1c-1.9-0.9-6.4-6.7-7.8-8.6
		c-4-5.5-7.6-11.5-11.2-17.2C1119,300.3,1120.7,300.6,1121.8,301.3z M1131.9,304.6C1131.9,304.6,1131.8,304.6,1131.9,304.6
		C1131.8,304.6,1131.9,304.6,1131.9,304.6z M1131.9,304.8c0.1,0,0.3-0.1,0.4-0.1c0.8,0.3,2.6,1.3,3.8,1.9c-2.2,0.5-4.3,1-6.5,1.5
		c-0.5-0.9-1-1.7-1.5-2.6c0.6-0.1,1.1-0.2,1.7-0.3C1130.5,305.1,1131.2,305,1131.9,304.8z M1122.4,312.2
		C1122.4,312.2,1122.4,312.1,1122.4,312.2c2.1,3.1,4.2,6.2,6.7,8.9c1.2,1.4,3.2,4.1,5.1,5.3c-9,1.5-18.2,2.2-27.6,2
		c-6.6-0.1-12.5,0.1-18.9-1.6c-2.8-0.8-6.8-2.3-10-2.5c6.8-2.9,13.6-5.9,20.5-8.5C1105.7,312.9,1114.4,312.8,1122.4,312.2z
		 M1119.3,307.6C1119.3,307.6,1119.3,307.6,1119.3,307.6L1119.3,307.6z M1114.2,332.8c-14.3,0-28.2,0.1-41.4-5.8
		c1.9-0.9,2.8-1.3,4.5-0.9c4.4,1,8.7,2.2,13.1,3.2c7,1.5,14.8,0.6,21.9,0.8c16,0.5,32.5-3.6,47.7-8.4c0.7,1,1.4,2,2.1,3
		c-5.2,1.3-10.4,2.9-15.6,4.3c-0.5-0.3-1.6,0-1.9,0.5c-0.2,0-0.4,0.1-0.6,0.2C1134.3,332.1,1124.2,332.8,1114.2,332.8z M1155,316
		c1.6,1.3,3.2,2.7,4.7,4.2c-5.3,1.7-10.5,3.1-15.8,4.3c-5.3-4.5-9.9-9.5-13.8-15.1c2.8-0.6,5.6-1.3,8.5-1.9c0.2-0.1,0.7-0.3,0.9-0.6
		C1145,309.3,1150.5,312.3,1155,316z M1131.1,303.6c-0.4,0.1-0.7,0.2-1,0.2c-1,0.2-2.1,0.4-3.1,0.6c-0.1,0-0.1,0-0.2,0
		c-0.5-1-1.1-2.1-1.7-3c1.1,0.3,2.2,0.7,3.3,1.1C1129.3,302.9,1130.2,303.2,1131.1,303.6z M1071.8,302.1c14.3-1.9,28.7-4.5,42.9-2.8
		c-0.1,0.1-0.2,0.2-0.2,0.2c1.5,2.3,2.9,4.7,4.4,7.1c-7.2,1-14.5,2-21.5,3.9c-9.5,2.6-18.1,7.1-27.2,10.7c-2.2-1.9-5.9-3-8.4-4.3
		c-3.6-1.9-6.6-4.2-9.9-6.6c-2.1-1.5-4.8-4.2-7.4-5.5C1053.6,303.6,1062.9,303.3,1071.8,302.1z M1028.5,308.9
		c2.7-1.1,5.5-1.9,8.3-2.6c3.8,3.5,7.9,6.6,12.3,9.4c2.9,1.8,5.3,4,8,6c1.7,1.2,3.6,1.5,5.3,2.5c-0.2,0.1-0.4,0.1-0.5,0.2
		c-13.8,4.3-28.2,8.8-42.8,6.9c-7.1-0.9-14.3-5.2-20.7-8.2C1008.4,318,1018.3,313,1028.5,308.9z M1188.2,241.8
		c-0.1,0.1-0.3,0.2-0.4,0.3c-0.1,0-0.1-0.1-0.2-0.1c-0.7-0.8-2.1-1.4-3.4-2c-0.9-0.5-1.8-1-2.8-1.4c-0.6-0.4-1.3-0.8-2-1
		c-0.4-0.1-0.6-0.2-0.8-0.3c1-0.9,2.9-1.6,3.7-2.1c1.3-0.8,2.6-1.6,3.9-2.5c4.9,0.4,9.8,0.9,14.7,1.3c-2.4,1.5-4.7,2.9-7.1,4.4
		C1192.1,239.4,1189.9,240.4,1188.2,241.8z M1121,243.9c1,0.5,2,1,2.9,1.5c0.9,0.6,1.8,1.2,2.6,1.4c7.1,4,13.8,8.7,20.4,13.4
		c-2.8-0.9-5.6-1.7-8.4-2.6c-4.4-1.4-8.2-4.3-12.3-6.7c-12.9-7.8-27.6-12-40.9-19c-0.4-0.2-0.9-0.1-1.4,0.2
		c-0.5-1.5-0.8-3.1-0.8-4.6c2.5,1.3,5.1,2.4,7.7,3.5c0.1,0.1,0.2,0.1,0.3,0.1c2.3,1,4.7,2,7,2.9c0.2,0.2,0.4,0.3,0.8,0.3
		C1106.2,237.4,1113.8,240.3,1121,243.9z M1172.1,243.1c2.4,0.7,4.7,1.5,6.8,2.9c0.8,0.6,1.3,1.4,1.8,1.5c-0.9,0.7-2.5,1.4-2.9,1.8
		c-1.7,1.1-3.4,2.2-5,3.5c-2.3,1.9-4.3,4.2-6.1,6.5c-1.1,1.4-2.2,2.8-3.3,4.3c-0.2,0.3-0.7,0.9-1,1.3c-0.6-0.3-1.8-0.6-2.3-0.7
		c-1.5-0.5-2.9-1.1-4.3-1.7c-0.5-0.2-1.4-0.4-2-0.7c0.3-0.5,0.7-0.9,1-1.4C1159.6,253.5,1165.1,247.7,1172.1,243.1z M1077.2,229.6
		c-1.2-0.5-2.4-1-3.5-1.5c1.2-0.8,2.4-1.6,3.6-2.4C1077.2,227.1,1077.1,228.4,1077.2,229.6z M1077.5,224.4c-0.4-0.1-0.9-0.1-1.3,0.1
		c-5.8,3.8-12.2,7.7-16.4,13.4c-1,1.4-1.8,2.9-2.6,4.4c-0.2,0.5-0.5,1.1-0.7,1.6c-1.3-0.1-2.7-0.4-4.1-0.7
		c4.5-11.8,16.5-18.9,26.7-25.4c-0.4,1.1-0.8,2.2-1.1,3.3C1077.9,222.3,1077.6,223.4,1077.5,224.4z M989.4,216.1
		c-1.1-6.4-2-12.9-3-19.3c8.3,2.8,17,4.5,25.7,5.5c6.9,0.8,11.9,1.1,15.1-5.7c1.6-3.3,2.8-6.9,3.8-10.4c0,0,0,0,0,0
		c-0.2,2.2-0.2,4.4,0,6.6c-0.1,0-0.2,0-0.3,0.2c-1.5,2.9-2.4,6.3-3.2,9.5c-0.1,0.6,0.6,1.4,0.9,0.6c1-2.7,2.1-5.5,2.7-8.4
		c0.1,1.1,0.2,2.2,0.4,3.2c0.1,0.4,0.1,0.8,0.2,1.2c-0.1,0.7-0.1,1.4-0.3,2.1c-0.5,3-1.7,5.9-2.6,8.9c-0.8,2.8-1,5.4-2.6,7.9
		c-1.6,2.5-2.5,2.8-5.4,2.7c-1.7,0-3.5-0.6-5.1-0.9c-2.6-0.5-5.3-0.9-7.9-1.3c-6.1-0.9-12.1-1.4-18.2-1.5
		C989.5,216.7,989.4,216.4,989.4,216.1z M988.3,185.1c-0.2-0.1-0.4,0-0.5,0.2c-0.4,1.4-0.9,3.1-2.6,3.2c-0.1,0-0.1,0-0.1,0.1
		c-0.4-2.1-0.8-4.3-1.3-6.4c2.4-1,4.9,0.1,6.7-2.5c1.9-2.8,1.4-7.4,1.3-10.5c-0.1-6.3-1.8-12-4.1-17.7c3.8,1.4,7.9,1.4,12,1.4
		c-1.2,2.5-1.5,5.5-2.3,8c-1.2,3.5-2.5,6.6-2.8,10.3c-0.2,2.7-0.8,7.3,0.2,9.8c0.8,1.8,1.8,1.7,3.6,1.8c0.1,2.7,1,4.9,4.7,5.5
		c2.3,0.4,5.1,0.5,6.9-1.3c2.5-2.3,0-1.6,4.7-3.2c0.4-0.2,1.2,0.3,1.7,0c2-1.5,1.9-3.3,2.2-5.6c0.1-1,0.2-2,0.3-3
		c1.9,0.4,3.9,0.7,5.8,1c1.2,0.2,4.4,0.1,5.3,0.8c1.2,1,0.7,3.1,0.5,4.4c-0.6,5.5-4.2,17.6-10.1,18.9c-5.2,1.1-11.5-0.6-16.7-1.3
		c-5.8-0.8-11.5-1.8-17.2-2.7c-0.4-2.4-0.8-4.7-1.2-7.1c0,0,0,0,0.1,0.1c1.9,0.3,2.8-1.8,3.2-3.3
		C988.5,185.6,988.5,185.3,988.3,185.1z M975.2,152.3C975.2,152.3,975.1,152.3,975.2,152.3c-0.9-2.5-1.9-5-2.9-7.4
		c1.5,0.1,3.9,2,5,2.2c1.2,0.2,2.3-0.1,3.3-0.7c1-0.5,1.5-1.9,2.6-1.7c0.7,0.1,2.9,6.5,3.3,7.4c2.6,5.9,4.2,11.5,4.2,18
		c0,4.5-0.1,8.4-4.9,10.2c-0.9,0.3-1.6,0.3-2.3,0.7c-2-8.9-4.5-17.8-7.5-26.4c7.5-0.9,5.5,14.1,6.2,19c0,0.1,0.1,0.1,0.1,0
		C982.6,169.3,985.7,148.1,975.2,152.3z M1016.3,132.3c-0.1,0.4-0.2,0.7-0.3,1.1c-0.4,0.2-0.5,0.3-0.6,0.5c-0.4-0.2-0.9-0.2-1.5-0.1
		c-0.7,0.2-1.3,0.1-1.8-0.3c0.3,0,0.7,0,1,0C1014.9,133.5,1015.6,133.1,1016.3,132.3z M1097.3,127.2c-6.3-4.5-12.4-8.1-20.4-8.1
		c-10.7,0-20.7,3.6-30.9,6.3c-0.1-0.1-0.2-0.3-0.3-0.4c-0.7-0.9-1.4-1.6-2.1-2.4c4.5-1.4,9.1-2.6,13.7-3.5
		c7.3-1.5,15.7-4.1,23.1-2.4c5.4,1.2,10.6,4.1,15.5,6.6c0.7,0.4,3.1,1.9,3.1,1.4C1098.9,125.2,1098,126.3,1097.3,127.2z
		 M1050.4,135.1c5.5,8.5,9,18.1,13.3,27.2c4.6,9.7,9.2,19.6,16.3,27.7c0.1,0.1,2.1,2,3.8,3c0.2,1.4,0.5,2.8,0.7,4.2
		c-5.1-4.7-9.8-9.6-13.3-15.7c-5.4-9.4-10-19.3-14.7-29c-4.5-9.2-8.7-19.3-16.1-26.7c-3.4-3.4-8.3-7.2-13.3-7.4c0.6-0.5,1-1,1.4-1.6
		c4.3,0.4,8.1,1.8,11.4,4.9C1043.9,125.6,1047.4,130.3,1050.4,135.1z M1089.4,225.8c-1.6-0.4-3.3-0.9-4.9-1.3
		c-0.3-0.1-0.6-0.1-0.9,0c0.2-0.6,0.5-1.2,0.7-1.8c0.5,0.1,1.2-0.1,1.5-0.4c0.7-0.7,1.5-1.4,2.5-1.7
		C1088.6,222.4,1089,224.1,1089.4,225.8z M1083.1,225.9C1083.2,225.9,1083.2,225.9,1083.1,225.9c0.2,0.1,0.3,0.1,0.3,0.1
		c-0.1,0-0.2,0-0.4,0.1C1083.1,226,1083.1,225.9,1083.1,225.9z M1085,220.9c1-2.2,1.9-3.9,2.3-4.7c0.2,1.1,0.4,2.1,0.6,3.2
		C1086.9,219.7,1085.9,220.3,1085,220.9z M1079.9,216.3c-0.4-0.1-0.9-0.1-1.3,0.1c-2.7,1.7-5.6,3.5-8.5,5.4
		c-8.7-1.6-20-5.6-25.5-12.4c-2.9-3.5-4.3-8.2-6-12.4c-3.1-7.4,0.2-14.4,2.2-21.7c0.1-0.2,0.1-0.5,0.2-0.7
		c9.3,2.4,17.5,8.4,27.4,6.5c0,0,0,0,0,0c0.8,1.5,1.7,3,2.6,4.5c3.6,5.7,8.9,10.3,13.9,14.8c0.2,1.8,0.4,3.6,0.7,5.4
		C1084.5,207.1,1081.9,211.4,1079.9,216.3z M1015.6,147.4c0,0-0.1,0-0.1-0.1c-0.2-0.1-0.4-0.1-0.6,0c0,0-0.1,0-0.1,0
		c0-0.3,0-0.7-0.1-1c0-0.1-0.1-0.5-0.3-0.5c-0.3,0.1-0.5,0.1-0.8,0.2c0.9-0.8,1.4-2.1,1.2-3.8c0-0.1,0-0.2-0.1-0.3
		c0.6-0.7,0.9-1.6,0.8-2.8c0.2,0,0.3,0,0.6-0.1c8.4-1.9,15.8-7.1,23.8-10.1c0.1,0,0.1-0.1,0.2-0.1c2.3,2.8,4.2,5.7,5.4,7.6
		c5.3,8.8,9.4,18.4,14,27.6c2,4.1,4,8.2,6.1,12.3c-8.1-0.9-15.8-3.2-23.1-7.1c-0.1-0.1-0.3-0.1-0.5-0.1c1-6.1,0.8-12.9-3.5-17
		C1032.3,146,1022.3,152.2,1015.6,147.4z M1036.6,165.9c0,0.1,0,0.1,0,0.2c-4.7-3.2-8.6-7.3-11.8-12.1c3.4-0.1,6.9-0.2,9.4,2.4
		C1036.9,159.1,1037.1,162.5,1036.6,165.9z M1022.3,154.1c3.6,5.7,8.3,10.4,14,13.9c-0.2,0.7-0.3,1.3-0.5,2
		c-5.8-4.5-10.9-9.9-15.1-16c0.2,0,0.5,0,0.7,0C1021.7,154.1,1022,154.1,1022.3,154.1z M1017.9,153.7
		C1017.9,153.7,1017.9,153.7,1017.9,153.7c4.6,6.9,10.2,12.9,16.8,17.9c0.1,0.1,0.3,0.1,0.5,0.1c-0.8,2.2-1.7,4.4-2.4,6.6
		c0-0.4-0.1-0.7-0.1-1.1c-1-4.7-9.6-4.3-13.6-4.5c0.3-2.9,0.5-5.7,0.8-8.6c0.2-2.9,0.5-5.5-0.8-8.2c-0.3-0.6-0.7-1.4-1.3-2.3
		C1017.7,153.7,1017.8,153.7,1017.9,153.7z M1013.5,181.6c-0.5-0.1-1-0.1-1.5,0.1c0,0,0,0-0.1,0c-0.1-3-0.2-5.9,0-8.9
		c0.1-2.9,0.8-5.8,0.6-8.7c-0.3-3.2-2.1-4.9-5.2-5.5c0,0,0,0.1,0,0.1c3.1,2.2,3.9,4.2,3.8,8.4c-0.1,1.8-0.5,3.6-0.7,5.3
		c-0.3,3.7-0.4,7.4-0.1,11.1c-1,1.3-1.9,2.6-4,3.1c-3.4,0.8-6.1-0.4-6.7-4c0-0.1,0-0.1,0-0.2c0.2-0.4,0.2-1.2-0.1-1.5
		c-0.1-1.9,0.2-3.9,0.3-5.6c0.3-6.4,1.5-11.8,5.3-17c0.2-0.3-0.1-1.1-0.4-0.7c-4.4,4.8-5.4,11.4-5.7,17.8c-0.1,1.7-0.4,3.6-0.5,5.3
		c-5.1-1.3-2.2-12.7-1.1-15.9c1.2-3.5,2.6-12.2,7.1-12.4c1.3-0.1,2.6,1,4.2,0.8c0.9-0.1,2-0.9,2.9-0.9c8.5-0.2,6.7,12.5,6.3,17.8
		c-0.2,2.3,0,5.3-0.6,7.5C1017.5,179.9,1016.3,181.2,1013.5,181.6z M986.9,149.7c-0.5-1.1-0.9-2.1-1.4-3.2
		c5.4,2.5,11.4,2.8,17.3,2.3c0.1,0,0.2,0,0.4-0.1c0,0.2-0.1,0.5-0.1,0.7c-1,0.2-1.8,1-2.5,1.8c-4.3,0.1-8.8,0.1-12.8-1.6
		C987.6,149.5,987.2,149.5,986.9,149.7z M981.9,138.7c4.3,0.7,8.8,1.1,13.2,0.8c1.6-0.1,5.5-0.3,8.4-1.1c-0.3,1.1-0.3,2.2-0.7,2.5
		c-2.3,2-7.9,1-10.9,0.8c-2.7-0.2-5.4-0.5-8.1-0.8c-0.4-0.1-1.3,0.3-1.8,0.7C982,140.5,982,139.6,981.9,138.7
		C981.9,138.7,981.9,138.7,981.9,138.7z M1009.2,133c0.2-0.2,0.4-0.4,0.6-0.5c0.4,0.4,0.8,0.7,1.4,0.9c0.6,0.6,0.3,1.3,1.6,1.8
		c1.2,0.5,2.1,0.2,2.8-0.4c-0.2,1.2-0.4,2.4-1.2,3.3c-0.9,0.9-3.2,0.8-4.4,0.9c-0.4,0-0.4,1.1-0.1,1.2c0.7,0.3,1.4,0.5,2.2,0.6
		c0.7,0,2.1-0.6,2.6-0.5c-0.2,0,0.7-0.3,0.5-0.4c1.1,1.2-4.6,2.3-5.3,2.4c-0.4,0-0.4,1.1-0.1,1.2c1.1,0.6,1.9,0.2,3,0.5
		c0.3-0.1,0.6-0.3,0.9-0.4c-0.4,0.6-0.7,1.3-1.1,1.9c-1,0.8-3,0.8-4.3,0.9c-0.4,0-0.4,1.2,0,1.2c1,0.1,3-0.4,3.7-0.1
		c1-0.4,1.2,0.1,0.3,1.3c0,0.3,0,0.5-0.1,0.7c0,0-0.1,0-0.1,0c-0.9,0.3-1.8,0.5-2.7,0.8c-0.5,0.2-0.9,0.3-1.4,0.3
		c-1.8-0.4-3.3-1.5-4.2-3.2c-0.1-0.1-0.1-0.1-0.2,0c0,0,0-0.1-0.1-0.1c0.2-1,0.7-1.5,1.9-0.9c0.4,0.2,0.4-1,0.1-1.2
		c-1.2-3-1.1-4,0.3-3.1c0.2,0.1,0.4,0.3,0.6,0.4c0.3,0.2,0.5-1,0.1-1.2c-0.3-0.2-0.7-0.4-1-0.6c-0.1-0.1-0.2-0.3-0.3-0.4
		c0.5-0.9,0.7-2,1.3-3.4c0.2,0,0.5,0.2,0.8,0.5c0,0,0,0,0.1,0.1c0,0,0,0,0,0c0,0,0,0,0.1,0.1c0.3,0.2,0.4-0.9,0.2-1.1
		c-0.4-0.4-0.6-0.8-0.7-1.2c0-0.1,0-0.3,0-0.4c0-0.4,0.1-0.8,0.4-1.1C1007.8,133.2,1008.3,132.9,1009.2,133z M1017.3,134.3
		c6.5-2.1,12-6,18.3-8.4c0.6,0.8,1.3,1.6,1.9,2.5c-7.2,2.9-14,7.5-21.5,9.3c0.2-0.4,0.3-0.9,0.3-1.4c0-0.4,0.2-1,0-1.4
		c-0.1-0.2-0.2-0.3-0.4-0.5c0,0,0,0,0,0C1016.5,134.5,1016.9,134.4,1017.3,134.3z M1003.7,148.4
		C1003.7,148.4,1003.7,148.4,1003.7,148.4c0.1,0.1,0.1,0.2,0.1,0.2c0.3,0.5,0.6,0.9,1,1.3c-0.2-0.2-0.4-0.3-0.7-0.5
		c-0.2,0-0.3-0.1-0.5-0.1C1003.6,149,1003.7,148.7,1003.7,148.4z M982.1,142.5c0,0,0-0.1,0-0.1c0,0,0,0,0,0c0,0,0.1,0,0.1,0
		C982.2,142.4,982.1,142.4,982.1,142.5z M1001.8,142.8c0.8-0.2,1.4-0.5,1.9-0.7c0,0.9,0.1,1.7,0.5,2.5c-0.2-0.1-0.3-0.2-0.5-0.2
		c-0.3-0.1-0.3,0.5-0.3,0.6c0,0.8,0,1.6-0.1,2.4c-0.1,0-0.1,0-0.2,0c-5.9,0.5-12,0.2-17.3-2.8c-0.3-0.2-0.7-0.1-1.1,0
		c-0.3-0.7-0.6-1.3-0.9-2C989.6,143.4,996.2,144.4,1001.8,142.8z M1041.8,170.8c7.7,4,15.7,6.4,24.3,7.2c0.1,0,0.3,0,0.4,0
		c0.4,0.7,0.8,1.5,1.2,2.2c-9.3,1.3-17.5-4.7-26.3-6.8c-0.1,0-0.1,0-0.2,0C1041.5,172.5,1041.7,171.7,1041.8,170.8z M1084.2,182.9
		c-0.1,2.7-0.1,5.5,0,8.3c-0.8-1.5-3.5-3.7-4.4-4.8c-1.6-2-3-4.1-4.3-6.3c3.3-1.4,6.5-2.7,9.4-4.8
		C1084.6,177.8,1084.4,180.3,1084.2,182.9z M1085,172.9c0,0-0.1,0.1-0.1,0.1c-3,2.7-6.6,4.2-10.3,5.7c-0.3-0.6-0.7-1.1-1-1.7
		c4.4-1.5,8.1-3.5,11.6-6.4C1085.2,171.4,1085.1,172.1,1085,172.9z M1023.9,120.4c4-1.6,8.3,0.6,12.1,4c-6.7,2.3-12.5,6.4-19.2,8.8
		c0.1-0.3,0.2-0.7,0.3-1.1c0-0.2-0.1-0.6-0.2-0.7c0.2-0.3,0.3-0.6,0.5-0.9C1019.3,127,1021.4,123.5,1023.9,120.4z M1009.2,129.2
		c0,0.1,0,0.1,0,0.2c0,0,0,0,0,0c0,0.2,0,0.3,0,0.4c-1.3,0.3-2.1,2.3-2.5,3.3c-0.1,0.2-0.1,0.4-0.2,0.6c-1.7-2.3-3.3-4.7-4.9-7
		c2-1,4.1-1.8,6.3-2.5c1.4-0.4,3.1-0.7,4.6-1.1C1011.1,125.1,1010,127.1,1009.2,129.2z M999.5,127.7c1.8,2.7,3.7,5.4,5.7,8
		c0,0,0,0,0.1,0.1c0,0,0,0,0,0.1c-0.3,0.1-0.6,0.4-0.8,0.6c0,0-0.1,0-0.1,0c-0.2,0.3-0.6,0.4-1.2,0.6c-2.1-2.6-4-5.4-5.7-8.2
		C998.1,128.4,998.8,128,999.5,127.7z M995.4,129.8c0,0,0.1,0,0.1-0.1c1.6,2.6,3.3,5.2,5.2,7.6c-1.1,0.1-2.1,0.2-2.6,0.2
		c-2.2,0.3-4.3,0.4-6.5,0.3c-2.6-0.1-5.3-0.4-7.9-0.8c-0.3,0-0.8,0.1-1.3,0.3C986,134.1,991,132.1,995.4,129.8z M980,137.3
		c0.2,0.3,0.6,0.6,1,0.6c0.1,1.8,0.1,3.6,0.2,5.3c-1.8,1.4-3,0.8-5.5-0.2c0.6-0.6,0.4-1.6,0.4-2.4c0-0.9,0.1-1.9-0.1-2.8
		c-0.1-0.3-0.3-0.5-0.5-0.1c-0.3,0.7-0.3,1.7-0.3,2.5c-0.1,0.8-0.3,1.9,0.1,2.6c0,0,0,0.1,0.1,0.1c-0.1,0-0.2-0.1-0.4-0.1
		c-0.3-0.1-0.4-0.3-0.7-0.5c0,0,0,0,0,0c0.1-1.9,0.2-3.8,0.2-5.7c0-0.1-0.1-1.1-0.1-1.3c0,0,0-0.1,0-0.1c0.1,0,0.3,0.2,0.5,0.3
		c0.1,0.1,0.2,0.2,0.4,0.3c0.1,0.1,0.1,0.1,0.2,0.1c0.6,0.5,1.2,1,1.9,1.3C978.5,137.8,979.4,137.7,980,137.3z M974.2,133.4
		c-0.1,0-0.1,0.1-0.2,0.1c-0.2,0.3-0.3,0.8-0.3,1.2c-0.1,0.1-0.1,0.1-0.2,0.2c-0.5,0.4-1.1,0.7-1.6,1c-1,0.5-2,0.8-3,1.2
		c-2-4.5-4.3-8.8-6.6-13.1c2.9-0.4,6.3-1.2,8.9,0.7c2.5,1.8,3.4,5.8,3.9,9C974.7,133.5,974.5,133.4,974.2,133.4z M972,137
		c0.6-0.2,1.3-0.5,1.8-0.9c0,0.1,0,0.1,0,0.2c0.1,2,0.3,4,0.5,6c0,0,0,0,0,0c-0.2-0.1-0.4-0.3-0.6-0.3c-1.1-0.1-1.7,0.1-2.3,0.7
		c-0.7-1.7-1.5-3.4-2.2-5.1C970.1,137.6,971.1,137.3,972,137z M1035.5,177.4c2.9-6.4,7.1-19.2-1.4-23.5c-4.1-2.1-9.5-0.7-13.9-1.3
		c-1.8-0.2-3.3-0.6-4.2-1.4c-0.1-0.1-0.2-0.2-0.3-0.3c-0.3-0.4-0.4-1-0.4-1.6c5.2,2.4,11.8,0.2,17.1,1.5c9.1,2.2,8.3,13,7.2,20.2
		c-0.8,5.2-3,10-4,15.2c-1.1,5.6,0.1,9.4,2.1,14.6c3.2,8,6.8,12.8,14.8,16.6c4.1,1.9,8.3,3.5,12.6,4.8c1.1,0.3,2.3,0.7,3.4,0.9
		c-0.3,0.2-0.6,0.4-0.9,0.6c-0.7,0.4-1.5,0.9-2,1.3c-0.2-0.1-0.5-0.1-0.7-0.3c-3.4-2.3-8.4-3.5-12.2-5.1c-9.2-3.9-16.5-10-18.8-20.2
		C1032.5,192.3,1032.5,184,1035.5,177.4z M1079.1,221.5c1.5-5.5,4.8-11.5,6.5-14c0,0.2,0,0.5,0,0.7l0.3,0c0.1,0.4,0.1,0.8,0.2,1.3
		l0.5,6c-0.4,0.8-2.5,4.7-4.2,9.2c-2.3,6.2,4.2,15.6,4.3,15.7c3.3,4.8,7.4,8,9.8,9.7l-7.6-1.5c-0.7-0.7-5-4.8-7-8
		C1078.1,234.6,1077.2,228.5,1079.1,221.5z M1096.9,246.4c-1-2.3-1.8-4.7-2.5-7.1c0.1,0.1,0.3,0.1,0.5,0.2c1,0.1,2,0.5,2.9,1
		c0.1,0.1,0.3,0.2,0.4,0.2c0.2,0.2,0.5,0.3,0.7,0.5c0.1,0,0.1,0.1,0.2,0.1c0,0,0,0,0,0c0.5,2.2,1.4,4.4,2,6.5
		c0.3,0.9,0.6,1.9,0.9,2.8c0,0.1,0.1,0.2,0.1,0.3c-0.6-0.1-1.2-0.4-1.6-0.4c-1.2-0.2-0.5,0-1-0.5
		C1098.6,249,1097.4,247.4,1096.9,246.4z M1103.4,247.1c0,0-0.1,0-0.1,0c-0.6-1.9-1.1-3.9-1.7-5.8c3,1.3,6.1,2.5,9.1,3.9
		c-0.8,0.2-1.5,0.5-2.2,0.7C1106.8,246.3,1105.1,246.8,1103.4,247.1z M1091.4,237.2c1.2,3.3,1.9,7.3,3.6,10.4
		c-2.3-1.8-5.1-4.5-7.5-7.9c-0.8-1.2-2.2-3.5-3.2-6.1c2.3,1.2,4.7,2.3,7,3.4C1091.4,237,1091.4,237.1,1091.4,237.2z M1106.5,251.7
		c0,0-0.1-0.1-0.2-0.1c-0.3-0.2-0.7-0.2-1-0.3c0.2-0.1-0.4-1.5-0.5-1.8c-0.1-0.4-0.3-0.9-0.4-1.3c0.9-0.2,1.7-0.4,2.6-0.6
		c1.3-0.3,3.3-0.5,4.6-1.1c0.1,0,0.1,0.1,0.2,0.1c0.6,0.4,1.3,0.7,1.9,1c0.6,0.3,1.1,0.6,1.7,0.9c-2.5,0.7-5.3,1.6-7.7,2.6
		C1107.3,251.2,1106.9,251.4,1106.5,251.7z M1112.8,252.7c-0.2-0.5,0.2-0.9,0.5-1.4c1.2,0.1,2.4-0.2,3.5-0.7c-0.4,1-0.6,2-0.9,3
		c-1-0.2-2-0.4-3.1-0.6C1112.9,252.8,1112.9,252.7,1112.8,252.7z M1117.9,253.6c0.4-1.4,0.7-3,1.4-4.3c2,1.1,4.1,2.2,6,3.4
		c2.2,1.4,4.4,2.9,6.7,4.2c-4.7-1.1-9.5-2.1-14.3-3.1C1117.8,253.8,1117.9,253.7,1117.9,253.6z M1209.9,226.8
		C1210.2,226.8,1210.4,226.9,1209.9,226.8L1209.9,226.8z M1226,211.8c-0.1,0-0.2,0-0.4,0c-4.9,1-9.9,2.4-14.6,4.3
		c-4,1.6-7.8,3.9-11.6,6c-1.8,1-4.6,2.1-5.8,3.8c-0.1,0.1-0.1,0.3-0.2,0.4c-9.5-1.4-19-3.2-28.4-3.6c-11.2-0.5-22.5,1.2-33.5,2.9
		c-6.5,1-12.8,2.3-19.4,2.1c-4.1-0.1-9-1.4-13.1-0.6c-0.7-3.9-1.4-7.8-2.1-11.7c0.3-0.2,0.5-0.4,0.5-0.7c2.6-1.1,5.5-1.9,8.4-2.6
		c0,0.1,0.1,0.2,0.4,0.3c9.8,2.3,19.6,4.5,29.6,5.3c8.6,0.7,17.1-0.2,25.6-1c8.5-0.8,17-1.7,25.1-4.5c8.3-2.8,15.6-7.7,22.8-12.6
		C1215.4,203,1220.8,207.4,1226,211.8z M1095.4,164.9C1095.4,164.9,1095.5,164.9,1095.4,164.9c5.5-4.7,13.4-12.5,21-12.2
		c0,0,0.1,0,0.1,0c0.4,0.9,0.9,1.7,1.3,2.6c-0.1-0.1-0.4-0.2-0.8-0.2c-8.4,1.1-15.4,7.7-22,12.8
		C1095.1,166.9,1095.3,165.9,1095.4,164.9z M1094,191.1c-0.3-6.9,0-14.1,0.8-21.2c0,0,0,0,0,0c6.3-4.7,13.9-12.4,21.9-13.4
		c0.7-0.1,1.2-0.6,1.1-1c1,2.1,2,4.1,3,6.1c0,0,0,0.1,0.1,0.1c-4,4.2-7.4,8.9-11,13.6c-5.1,6.7-9.9,14.5-15.7,20.6
		C1094.2,194.3,1094.1,192.7,1094,191.1z M1125.3,157.4c-0.4-0.8-0.7-1.6-1.1-2.4c0,0,0,0,0,0c1.2-0.4,2.4-0.4,3.6-0.1
		c0.1,0,0.1,0,0.2,0C1127.2,155.7,1126.3,156.5,1125.3,157.4z M1098.6,205.1c0.1,0,0.2,0,0.3,0.1c0.8,0,1.9,1,2.6,1.3
		c0.6,0.2,1.2,0.4,1.8,0.6c-1.2,0.4-2.3,0.8-3.5,1.2c-0.9-0.5-1.9-1-2.8-1.5c-0.1,0-0.2,0-0.2-0.1
		C1097.3,206.2,1097.9,205.6,1098.6,205.1z M1097.5,209c-0.5,0.2-1.1,0.4-1.6,0.5c-0.1-0.5-0.2-1-0.2-1.5
		C1096.3,208.4,1096.9,208.7,1097.5,209z M1112.1,210.8c7.8,1.6,15.7,3.1,23.7,3.5c8.5,0.4,17-0.4,25.5-0.9
		c7.7-0.4,14.6-1.4,21.9-4.2c7.8-3,15.4-6.8,22.6-10.9c0,0,0,0,0.1,0c0.8,0.3,1.5,0.6,2.2,1c0,0,0,0,0,0
		c-6.5,4.4-13.2,8.9-20.6,11.7c-8.8,3.3-18.3,4.1-27.5,4.9c-9.2,0.9-18.2,1.5-27.4,0.4c-8.1-1-16.1-2.8-24.1-4.6
		C1109.7,211.4,1110.9,211.1,1112.1,210.8z M1158.1,198.4c0.5-0.2,1-0.5,1.5-0.6c3.1,0.3,6.1,1.1,9.3,1c4.1-0.1,9.3-1.4,11.4-5.3
		c2-0.1,4.5-0.3,5.8,0.4c0.1,0.1,0.2,0.1,0.2,0.1c0,0,0,0,0,0.1c-0.2,0.9-1.4,2-2.1,2.6c-7.8,7.3-18.9,6.7-28,2.5
		C1156.8,198.9,1157.4,198.6,1158.1,198.4z M1178.4,193.2c-3.1,7.3-11.5,3.6-17.2,3.5c1.3-0.4,2.5-0.8,3.8-1.2
		C1169.5,194.1,1174,193.3,1178.4,193.2z M1140.3,203c5-1.4,9.9-2.9,14.8-4.4c-0.3,0.1-0.6,0.3-0.9,0.4c-0.4,0.2-0.6,0.4-0.6,0.5
		c-0.1,0.1,0,0.2,0.1,0.3c6.7,3.3,14.5,4.9,21.7,2.5c4.2-1.4,11-4,12.9-8.6c5,0.7,10,1.9,15,3.6c0.3,0.1,0.5,0.2,0.8,0.3
		c-6.8,3.9-13.8,7.4-21.1,10.2c-7.7,3-15.1,3.8-23.3,4.3c-7.7,0.4-15.5,1.1-23.2,0.8c-7.1-0.3-14.2-1.6-21.1-3
		C1123.8,207.6,1132.1,205.3,1140.3,203z M1122.5,201.1c-5.6,1.6-11.1,3.3-16.6,5.1c0-0.2-0.3-0.4-0.7-0.5c-1.2-0.2-2.4-0.6-3.5-1.2
		c-0.5-0.3-1-0.5-1.5-0.7c9.5-7.7,20.5-13.8,31.5-18.7c0.9-0.4,1.8-0.7,2.7-1.1c3.5,3.3,6.8,7,10.7,9.8c0.2,0.1,0.4,0.3,0.5,0.4
		C1137.9,196.5,1130.2,198.9,1122.5,201.1z M1147.1,193.7c-0.8-0.5-1.6-1.3-2.2-1.7c-3.2-2.5-6-5.5-8.9-8.4c0.3,0,0.6-0.1,0.9-0.1
		c0.6-0.1,2.2-0.1,1.9-0.4c1.5,0.9,3,3.3,4.2,4.6c2.2,2.3,4.9,3.6,7.7,4.9C1149.5,193,1148.3,193.3,1147.1,193.7z M1155.4,191.3
		c-0.9,0.3-1.9,0.6-2.8,0.8c-4.4-2-7.3-4-10.6-7.6c-0.6-0.7-1.3-1.8-2.1-2.2c6.7-1.8,13.9-2.5,20.5-2.4c6,0.1,16.3,0.6,19.5,6.9
		C1171.5,187.1,1163.5,188.9,1155.4,191.3z M1167.6,175.7c7.9,0.8,13.7,3.7,17.9,10.5c-1.2,0-2.4-0.1-3.6-0.1
		c-2.8-5.2-10.3-6.5-15.6-7c-9.3-0.9-19.4,0.1-28.4,2.7c-9.4,2.6-18.2,8-26.6,12.9c-5.5,3.2-10.5,6.7-15.3,10.8c0-1.8,0-3.5-0.1-5.3
		c0-0.3-0.2-0.4-0.4-0.4c0,0,0.1,0,0.1-0.1c1.3-0.9,2.6-1.8,3.8-2.7c0.8-0.5,1.6-0.9,2.1-1.2c8.6-5.6,17.4-11.3,27-15.3
		C1140.8,175.4,1154.4,174.3,1167.6,175.7z M1124.3,168.4c2.2,3.4,4.5,6.7,6.7,10.1c-8.7,3.1-17,7.7-24.8,12.8
		c0.3-0.4,0.7-0.8,1-1.2C1113,182.8,1118.7,175.6,1124.3,168.4z M1135.4,177c-0.6,0.2-1.2,0.3-1.8,0.5c-0.4,0.1-0.8,0.2-1.2,0.3
		c-2.4-3.6-4.7-7.1-7.1-10.7c0-0.1,0.1-0.1,0.1-0.2c0.2-0.2,0.4-0.4,0.5-0.6c0.5-0.4,1-0.8,1.5-1.2
		C1130.1,169.2,1132.7,173.1,1135.4,177z M1141.7,142.7c6.1-7,12-13.4,19.8-18.8c2.6-1.8,5.3-4,8.1-5.4c-0.9,0.5,0.6,0.4,2.2,0.9
		c0.7,0.2,1.4,0.5,2,0.7c0.3,0.1,0.5,0.1,0.6,0.1c-1.5,1.6-5.9,3-7.6,4c-3.9,2.3-7.8,4.8-11.2,8c-7.2,6.7-12.1,15.5-18.8,22.8
		c-0.4,0.4-0.8,0.8-1.2,1.2c-0.5,0.2-0.9,0.5-0.6,0.6c-2.9,2.6-6.1,4.7-8.9,7.3c-2.3,2.1-4,4.8-5.9,7.2
		c-5.2,6.7-10.5,13.3-15.8,19.9c-1.4,1.7-3,3.1-4.8,4.4c-1.4,0.9-2.7,1.9-4.1,2.8c-0.2-0.4-0.3-0.8-0.5-1.3
		c4.4-4.4,8-10.1,11.8-15.1c5.3-7,10.3-14.4,16.4-20.7c3-3.1,6.4-5.6,9.4-8.6C1135.8,149.6,1138.7,146.1,1141.7,142.7z
		 M1131.9,151.3c-0.8,0.8-1.7,1.6-2.6,2.4c0,0,0,0,0,0c-1.8-0.3-3.5-0.2-5.3,0.3c0,0-0.1,0-0.2,0.1c-0.5-1.1-1-2.2-1.5-3.3
		C1125.6,150.4,1128.7,150.5,1131.9,151.3z M1118.1,145.9c1.9,3.3,3.6,6.9,5.1,10.4c0.9,2.2,0.1,2.9-1.3,4.1
		c-1.4-2.8-2.7-5.6-4.2-8.5c0.1-0.1,0-0.2-0.2-0.3c-3.3-6.5-7.1-12.9-12.3-17.9c0.2-0.1,0.4-0.3,0.4-0.5c0.2-0.7,0.5-1.3,0.7-2
		C1110.8,135.8,1115.1,140.5,1118.1,145.9z M1104,134.2c5,4.9,8.7,11.1,12,17.4c-7.6,0.4-14.6,6.3-20.2,11.3
		C1097.3,153,1100,143.2,1104,134.2z M1084.7,226.3c1.5,0.4,3,0.8,4.6,1.2c0.2,0,0.4,0.1,0.6,0c0.1,0.4,0.2,0.9,0.3,1.3
		C1088.3,228,1086.5,227.2,1084.7,226.3z M1087.5,156.6c-0.8,3.9-1.4,7.9-1.9,11.9c-0.1,0.1-0.3,0.1-0.3,0.2
		c-3.7,3.4-7.5,5.6-12.2,7.1c-0.2-0.3-0.3-0.6-0.5-0.8c-5.1-9.4-9.3-19.2-13.8-28.9c-3.3-7.1-7.1-13.8-12-19.9
		c9.1-2.5,18.3-5.8,27.8-6c5.3-0.1,9.2,0.7,13.8,3.3c2.8,1.6,5.5,3.3,8,5.2c0.1,0,0.1,0.1,0.2,0.1c-0.4,0.6-0.7,1.2-1.1,1.9
		C1091.2,138.6,1089.2,147.9,1087.5,156.6z M1110.5,111.6c-3.6,3.8-7.2,7.7-10.4,12c-7.3-4.1-15.6-8.9-24.2-8.7
		c-6.3,0.1-12.8,1.8-18.9,3.1c-4.8,1-9.6,2.2-14.3,3.7c-3.8-3.7-7.7-5.9-13.3-6.4c5.2-3.9,11-6.9,16.8-9.8c10.2-5,20.8-7.4,32.2-8.4
		c13.2-1.2,27.1-1.8,40.2,1.1c1.4,0.3,3.2,1.3,4.7,1.6C1118.5,103.3,1114.4,107.5,1110.5,111.6z M1025.4,112
		c10.6-8.5,24.2-14.4,37.4-17.5c21.2-4.9,45.3-5,66.5,0.6c-1,0.7-2,1.4-3.1,2.1c-2.4,1.5-0.5,1.2-2.1,0.9c-3.5-0.7-6.9-1.9-10.6-2.4
		c-15.2-2.1-31.3-1.3-46.3,1.3c-12.4,2.2-23.9,7.5-34.6,14.2c-3.9,2.4-7.3,5-10.2,8.3c-0.3,0.2-0.5,0.4-0.5,0.6
		c-0.8,0.9-1.5,1.8-2.2,2.8c-1.7,2.5-3.4,5.1-4.7,7.8c-0.3,0.7-1,1.3-0.8,1.3c-1.5,0.4-3.2-0.2-2.9-2.6c1-2.6,2.5-5.2,4.3-7.5
		c1.4-1,2.6-2.9,3.7-4.3C1021.3,115.5,1023.4,113.6,1025.4,112z M1025,30.8c0.2,0.5,0.5,1.1,0.4,1.4c-0.1,0.4-1.2,0.7-1.8,1
		c-1.7,0.7-3.4,1.4-5.1,2.1c0,0,0,0,0,0c-0.1-0.2-0.1-0.4-0.2-0.7c0-0.1-0.1-0.1-0.1-0.1c0,0,0,0,0.1-0.1c0.2-0.2,0.1-0.3-0.1-0.4
		c-0.3-0.1-0.6-0.2-0.9-0.3C1019.8,32.7,1022.4,31.7,1025,30.8z M1005.3,29.3c3-1.2,6-2.3,9.1-3.4c0.2,0.6,0.6,1.3,0.5,1.6
		c-0.2,0.8-1.6,1.1-2.2,1.3c-1.6,0.6-3.1,1.3-4.7,1.9c0,0,0,0,0,0c-0.2-0.1-0.4-0.1-0.6-0.2c-0.8-0.3-1.6-0.7-2.5-1.1
		C1005,29.4,1005.1,29.4,1005.3,29.3z M987.7,40.7c0.9-1.2,0.6-1.8,0.5-3.3c-0.2-3.1,1.4-4,4.1-5.2c1.9-0.9,4.6-2.6,6.7-2.8
		c2-0.2,4.5,1.3,6.5,2c0.9,0.3,7,1.6,8.9,2.6c0.1,0.1,0.2,0.2,0.4,0.3c0,0,0.1,0.1,0.1,0.1c0.5,1.5-13.6,7.8-15.2,8.9
		c-0.9,0.6,1.3,0.4,1.7,0.1c4.6-3.1,10.4-4.5,14.9-7.5c0.4,1.7,0.9,4.7,0.3,5.6c-0.5,0.7-2.4,1.4-3.2,1.8c-3.2,1.8-6.4,3.5-9.7,5.2
		c-1.2,0.6-2.6,1.7-3.9,2c-2.3,0.5-3.1-1.8-5.1-2.4c-2.6-0.8-5.2,1.9-7.7,1c0.4-0.3,0.8-0.6,1.2-0.9c0.6-0.4,1.7-0.8,2.1-1.5
		c1.5-2.5-1.5-2.8-3.2-2.6c-1,0.1-1.8,0.4-2.6,0.9C984.5,42.3,986.2,42.7,987.7,40.7z M972.1,85.9c-3.8-14.2-1.4-31.4,12.5-39.1
		c2.5,0.8,2.7,1.5,0.8,2.1c-0.4,0.3-0.9,0.6-1.3,0.9c-1.1,0.8-2.2,1.8-3.2,2.8c-2,2.1-3.5,4.6-4.7,7.3c-2.7,6.1-3.1,12.9-2.1,19.5
		c1.2,7.7,3.9,15.7,7.3,22.6c3.7,7.4,9.2,14.2,13.9,21c-0.6,0.3-1.2,0.6-1.9,1C983.9,113.1,975.9,100,972.1,85.9z M982.9,132.8
		c1.3-1.9,5.3-3.4,7.3-4.5c3.7-2,7.5-4.1,11.4-5.7c4.5-1.9,9.2-3.3,14-4.5c-0.1,0.2-0.3,0.3-0.4,0.5c-0.5,0.6-1,1.2-1.5,1.8
		c0,0,0,0,0,0c-3.4,1.4-7.3,1.9-10.7,3.2c-3.9,1.5-7.5,3.7-11.2,5.6c-3.4,1.8-7.2,3.5-10.2,5.9c-0.1-0.4-0.1-0.8-0.2-1.2
		c-0.1-0.2-0.1-0.3-0.2-0.4c0-0.1,0-0.1,0-0.2C981.7,133.5,982.5,133.4,982.9,132.8z M972.8,120.2c5,2.8,7.6,9.7,7.2,15.4
		c-0.8,0.4-2.3,0-3-0.5c-0.3-0.2-0.5-0.4-0.8-0.6c-0.6-3.3-1.3-7.9-3.8-10.4c-2.8-2.7-7-1.7-10.2-0.3c-0.4-0.7-0.8-1.4-1.2-2.1
		c-0.4-0.7-0.8-1.4-1.2-1.9C964.3,118.8,968.5,117.7,972.8,120.2z M952.8,117.5c3.4-0.3,4.4,2,5.8,4.4c3.8,6.5,6.7,13.7,10.1,20.5
		c5.9,12,9.8,25.7,12.6,38.7c2.4,11.1,4.2,22.4,5.7,33.7c1,7.8,4.2,15.3,7.1,22.6c-2-0.5-2.5-0.6-3.5-2.9c-1.8-4.5-3.6-9-5-13.6
		c-2.9-9.6-4-20.1-5.8-29.9c-2.5-13.8-7.5-27.7-12.6-40.8c-3.7-9.5-6.9-19.4-13.7-27.1c-0.4-0.4-1.3-0.2-1.7,0.1
		c-1,0.7-2.2,1.5-3.3,2.3c0.1-1.1,0.1-2.3,0.1-3.3C948.8,119.7,949.8,117.8,952.8,117.5z M909.3,217.8c-4.1-6.2-7-13.3-11.1-19.6
		c-6.4-9.9-14.1-18.9-22.3-27.4c-12.2-12.6-24.8-24.4-35.7-38.1c-0.1-0.1-0.3-0.2-0.5-0.3c-2.7-3.3-5.5-6.4-7.9-9.9
		c0.3-1.2,0.1-0.5,0.8-1.2c0.7-0.7,1.9-1.9,2.7-2.3c1.4-0.9,2.8-0.1,4.2,0.6c0.4,0.2,0.8,0.4,1.2,0.7c-0.2-0.1,1.6,1.1,2.2,1.2
		c0,0,0,0,0,0c0,0,0,0,0,0c0,0.1,0,0.2,0.1,0.2c0.1,0,0.1,0,0.2,0.1c0,0,0.1,0,0.1,0c0,0.1,0,0.3,0.1,0.4c-1.9-1.4-3.8-2.4-5.9-3.3
		c-0.6-0.2-0.5,0.8-0.4,1c1,1.8,2.1,3.6,3.3,5.4c-0.5,0.2-0.9,0.7-0.5,1.1c4.7,6.2,9.5,12.3,14.4,18.2c6.6,8,14.2,15,21.4,22.4
		c4.8,4.9,9.4,9.9,13.6,15.1c0,0.1,0,0.1,0.1,0.2c3.7,4.5,7.1,9.2,10.2,14.3c3.2,5.2,6.1,10.6,8.9,16c1,2,2,4.5,3.2,6.6
		c-0.7-0.3-1.5-0.5-2.2-0.8C909.4,218.3,909.4,218.1,909.3,217.8z M875.3,199.7c-1-1-2-2.1-2.9-3.1c1.6,0.5,3.4,0.7,5.6,0.4
		c5-0.5,8.4-3.4,12.2-6.3c2.1,2.8,4.1,5.6,6,8.5c0.9,1.4,1.7,2.8,2.6,4.3c-7.5-0.9-15.1-2.7-22.5-4
		C876,199.5,875.7,199.5,875.3,199.7z M864.6,181.9c-1.8-0.5-3.7-0.7-5.5-0.7c-0.3,0-0.6,0.1-0.8,0.3c-2.3-2.4-4.6-4.9-6.8-7.3
		c0.1,0,0.2,0,0.4-0.1c1.9-0.7,4.1,0.8,6,0.9c1.1,0.1,2.2-0.1,3.2-0.5c2.7-1.2,3.9-5,5.2-7.3c0.2-0.3-1.8-0.2-2.1,0.4
		c-0.8,1.4-1.5,2.7-2.3,4.1c-0.6,1-1,2.3-2.5,2.4c-0.7,0.1-1.7-0.3-2.4-0.5c-2.1-0.6-3.8-0.7-5.8,0c-0.1,0-0.1,0-0.1,0.1
		c-1.3-1.4-2.6-2.8-3.9-4.3c0.5,0,1,0,1.6,0c0.8,0,1.8,0.2,2.6-0.2c0.3-0.1,0.5-0.3,0.6-0.5c2,0.1,4.2,0.7,5.6-0.9
		c2-2.3,3.7-4.8,5.6-7.1c1.5,1.5,2.9,3,4.4,4.4c-0.2,0.1-0.4,0.3-0.4,0.5c-0.9,7.9-2.8,17.2,0,24.9c0.1,0.2,0.1,0.3,0.2,0.5
		c-2.6-2.7-5.1-5.4-7.7-8.2c1.3,0,2.7,0.2,3.9,0.6c0.5,0.1,1.2,0,1.5-0.4C865.2,182.5,865.1,182,864.6,181.9z M851.1,156.4
		c-0.7,0.4-1.4,0.9-2,1.6c-0.3,0.4,0.3,0.5,0.6,0.5c0.5,0,1.1-0.2,1.4-0.6c0.1-0.1,0.2-0.1,0.2-0.2c0.1,0.4,0.1,0.7,0.2,1.1
		c0.2,0.8,2.3,0.3,2.2-0.6c-0.3-1.6-0.6-3.1-0.9-4.7c-0.2-0.8-2.3-0.3-2.2,0.6c0.1,0.3,0.1,0.5,0.2,0.8c-2.5-0.6-5.2-0.6-7.7-1.2
		c-2.6-0.6-5.3-0.6-8-0.5c-0.4,0-1.1,0.4-1.4,0.6c-1-1.3-2-2.7-3-4.1c7.2,1.5,14.4,2.2,21.7,2.6c0.4,0,1.5-0.4,1.7-0.7
		c0.3,0.3,0.6,0.7,1,1c-0.3,0.1-0.5,0.3-0.5,0.5c-0.3,2,0.2,3.9,0.6,5.8c0.5,2.6,0.7,5.2,0.6,7.8c0,0.6,1,0.5,1.6,0.2
		c-0.6,0.7-1.4,1.2-2.5,1.4c-1,0.2-2,0.1-3,0.1c0.2-0.2,0.3-0.4,0.4-0.7c0.6-1.1,1.2-1.9,2.3-2.6c1.2-0.8-0.6-1.3-1.4-0.8
		c-0.8,0.5-1.3,1.1-1.9,1.7c-0.5-2.2-0.9-4.5-1.4-6.7c0-0.2-0.3-0.3-0.5-0.4c-0.1-0.1-0.1-0.1-0.2-0.1c-4-0.6-8.1-1.5-12.2-1.2
		c-1-1.2-2-2.5-2.9-3.7c0.1,0,0.1,0,0.2,0c3.3-0.1,6.1,0.3,9.4,1c2.2,0.5,4.5,0.2,6.6,0.9c0.2,0.1,0.5,0,0.8-0.1
		C851,156.2,851.1,156.3,851.1,156.4z M842,138.3c3.9,4.5,7.9,8.9,12,13.2c0,0-0.1,0-0.1,0c-8.1-0.5-16.1-1.3-23.9-3.1
		c-0.1,0-0.1,0-0.2,0c-0.9-1.2-1.8-2.5-2.6-3.8c2.7,0.1,5.1,2.5,7.5,0.8c1.6-1.1,2.7-3.4,4.3-4.7C839.8,140,841.3,139.3,842,138.3z
		 M857.6,160.5c-0.3-2-0.9-4.1-1-6.1c1.9,2,3.9,4,5.8,5.9c-1.3,1.8-2.7,3.6-4,5.4c-0.2,0.3-0.4,0.5-0.6,0.8
		C858,164.4,857.9,162.5,857.6,160.5z M847.8,160.3c0.5,2.6,1.1,5.2,1.6,7.7c-0.3,0-0.5-0.1-0.6-0.1c-1,0-2-0.1-3-0.1c0,0,0,0,0,0
		c-1.2-1.3-2.4-2.7-3.6-4c-1.6-1.8-3.1-3.6-4.6-5.4C840.9,159,844.3,160,847.8,160.3z M868.1,186.4c-1.1-6-0.1-12.8,0.7-19
		c1.6,1.3,3.2,2.6,3.8,4.2c0.7,2.2-0.5,6.8-0.6,9.1c-0.1,2.1-0.3,4.4,0.9,6.3c3.3,5.4,9.7,2.4,13.4-1c0.7,0.9,1.5,1.8,2.1,2.7
		c1.4,1.9,0.7,1.3-1.7,3.2c-4.1,3.1-11,6.5-15.4,2.2C869.6,192.4,868.5,188.7,868.1,186.4z M875,186.2c-2.2-3.5-0.7-9.6-0.4-13.6
		c3.8,3.9,7.4,7.9,10.9,12.1C882.9,187.6,877.6,190.3,875,186.2z M849.5,121.8c0,0.5-0.1,1.1-0.2,1.6c-0.1,1-0.4,1.2-1.3,1.4
		c-1.2,0.3-2.7,0.3-3.9,0.4c-0.1,0,0,0.1,0,0.1c1.1,0.2,2.2,0.4,3.3,0.5c0.6,0.1,1.5,0.3,2.1,0c1.1-0.6,1-2.8,1.1-3.7
		c0.1-0.8,0-1.3-0.4-1.6c0.2,0,0.4,0,0.6,0.1c-0.1,0.2-0.1,0.4-0.1,0.6c0,2.3,0.1,4.7,0.3,7c0.1,0.6,0.8,1,0.9,0.2
		c0.2-1.8,0.3-3.7,0.3-5.6c2.8,1.5,5.8,2.4,8.9,3.3c0.6,0.2,1.9,0.4,2.4,0.8c0.4,1.3,0.8,2.7,1.2,4c-0.2,0.5-0.4,1-0.6,1.5
		c-0.6,1.5-1,2.4-2.7,2.7c-0.4,0.1-0.8,0.1-1.2,0.1c-2.5-1.7-4.7-4.4-7.4-5.7c-2.6-1.2-6.5-1.6-9.5-1.8c-0.2-0.3-0.5-0.6-0.7-0.9
		c0.4,0.2,0.9,0.3,1.4,0.6c0.5,0.4,0.8-0.7,0.5-1c-0.4-0.5-0.9-0.7-1.5-1c-0.5-0.4,0.1,0,0.5,0c0.3,0,0.5-0.1,0.7-0.3
		c0.4-0.4,0.5-1,0.5-1.5c0-1-0.3-1.9-0.3-2.9C846,120.7,848.1,120.9,849.5,121.8z M868.6,130c-1.1,7.5-4.2,14.5-5,22.1
		c-2.3-2.4-4.6-4.9-6.7-7.5c0.2-0.2,0.2-0.4,0.1-0.7c-0.3-1-0.8-1.8-1.6-2.4c-0.3-0.3-0.8-0.3-1.2-0.1c-1.4-1.7-2.8-3.5-4.2-5.2
		c2.5,1.2,5.3,1.3,8.3,1.2c0.1,0.1,0.2,0.1,0.4,0.2c2.1,0.3,4.7,0.2,5.9-1.9c1.3-2.3,2.6-5.5,1.9-8.2c-0.7-2.5-2.6-3.1-4.9-3.8
		c-2.8-0.8-5.6-1.7-8.2-3c2.6,0.3,5.2,0.6,7.8,0.9c1.9,0.2,6.9,0.4,7.8,2.2C869.6,125.5,868.8,128.5,868.6,130z M846.6,132
		c-0.7-0.9-1.4-1.8-2.1-2.8c2.7,0.6,5.5,0.9,7.9,2.1c1.7,0.9,3.2,2.4,4.7,3.8c-1.1,0-2.2,0.1-3.4,0C850.1,135,848.7,134.2,846.6,132
		z M841.5,123.8c-0.3,0.4-0.4,0.9-0.3,1.4c0,0-0.1,0-0.1,0c-1-1.4-1.9-2.9-2.8-4.4c1.4,0.8,2.8,1.7,4.1,2.7
		C842,123.5,841.8,123.6,841.5,123.8z M879.4,155.8c0.1,0.1,0.3,0.1,0.5,0.2c11,0.8,22.2,2.2,33.3,1.6c1.3-0.1,1.6-1.8,0.2-1.7
		c-10.9,0.6-21.9-0.8-32.7-1.6c-0.3,0-0.5,0.1-0.8,0.2c2.5-7.1,6.2-13.8,11.7-19c5.3-5,12.7-7.5,19.1-2.9c4.2,3.1,6.7,8,8.6,12.8
		c0.1,0.2,0.3,0.3,0.6,0.3c-0.5,1.1-1.8,1.5-2.7,2.2c-1,0.8-1.8,1.8-2.3,3c-0.5,1.2-0.7,2.5-0.7,3.8c-0.1,1.8,0.8,4.5-0.2,6
		c0,0,0,0.1,0,0.1c-7.4,7.1-15.1,13.7-23.2,20c-4.2-5.1-8.6-9.9-13.3-14.7c-0.3-0.3-0.6-0.6-0.9-0.9c0.2-0.1,0.4-0.3,0.4-0.4
		C877.6,161.8,878.4,158.8,879.4,155.8z M952.1,124.7c1,1.2,1.9,2.4,2.7,3.6c-9.1,8.3-17.4,17.1-25.9,25.9
		c-6.7,6.9-13.6,13.9-21,20.2c-4.3,3.7-9.6,6.9-13.6,11c-0.9-1.2-1.9-2.4-2.8-3.6c11.2-8.6,21.7-17.7,31.4-27.9
		C932.5,143.9,941.5,133.6,952.1,124.7z M961.4,167.1c1.5,3,1,5.3-1.7,6.7c0-0.1,0-0.2,0-0.3c0-2.1,0.3-3.4-1-4
		c0.8-0.8,1.4-1.8,1.6-2.9c0-0.2-0.2-0.7-0.4-0.3c-0.3,0.6-0.5,1.3-0.9,2c-0.2,0.4-0.4,0.7-0.7,1.1c-0.1,0-0.2-0.1-0.4-0.1
		c0.7-5.5,3.1-16.9-4.3-18.2c-0.7-0.1-0.7,1.6-0.1,1.8c5.5,1.7,4.2,11.2,4.2,16.4c-0.1,0-0.2,0-0.4,0c-5-0.4-10-0.8-15-0.6
		c0,0,0,0.1,0,0.1c2.9,0.7,5.8,1.2,8.8,1.6c1.6,0.2,3.4,0.2,5,0.6c2.1,0.5,2.3,0.5,2.2,2.7c0,0.2,0,0.3,0.1,0.4
		c-0.9,0-1.9-0.1-2.8-0.1c-1.8-0.1-3.7-0.3-5.5-0.5c-2.4-0.3-4.8-0.7-7.2-1.1c-3.4-0.6-4.1-1.1-4.3-4.1c1.8-0.5,2.9-1.6,3.4-3.5
		c0.8-2.6-0.2-5.5,0.2-8.2c0.2-1.5,0.7-3.6,1.6-4.8c1-0.7,2.1-1.4,3.1-2.1c0.9,0.5,1.8,1,2.7,1.5c2.5,0.8,4.2-1.5,6.8-0.1
		c5.3,2.7,4,10.4,3.9,15.4C960.6,166.5,960.9,167.4,961.4,167.1z M936.4,159.7c0-0.2,0-0.5,0-0.7c0.2-2.5,0-4.9-0.3-7.4
		c0-0.5-0.1-0.8-0.2-1.6c-0.1-0.4-0.2-0.6-0.4-0.6c4.3-4.5,8.7-8.9,13.1-13.3c-0.2,0.3-0.3,0.7-0.4,1.1c-0.3,1-0.2,2.2-0.2,3.2
		c-0.1,2.5-0.5,4.9-1,7.3c-1,0.1-2,0.4-3,1.6c-3.2,3.4-2,15.7-5.7,16.8c0-0.1,0-0.2,0-0.3C938.3,163.9,938,160.9,936.4,159.7z
		 M934.8,152.6c0,0.4,0.1,0.7,0.3,0.8c0.2,2.1,0.2,4.1,0,6.2c0,0.4-0.1,0.9-0.2,1.3c0,0.1-0.1,0.2-0.2,0.4c-0.1,0.2-0.1,0.4,0,0.7
		c-0.4,1.6-1.2,2.9-3.3,2.7c-3.6-0.2-7-1.5-10.6-0.3c3.7-3.6,7.2-7.2,10.7-10.9c1-1.1,2-2.1,3-3.2c0,0.1,0,0.2,0,0.3
		C934.7,151.2,934.8,151.9,934.8,152.6z M952.8,138.7c-0.2,1-0.4,1.9-0.5,2.9c-0.2,1.9,0.4,5-0.4,6.5c-1.6,0.1-3-0.4-4.3-0.5
		c0.6-2.2,0.8-4.4,1.1-6.7c0.4-2.4,0.9-4.3,2.5-6.2c0.8-0.9,2.8-3.6,3.4-1.9C955.1,134,953.1,137.5,952.8,138.7z M954.8,135.8
		c0.1-0.4,0.2-0.8,0.3-1.2c1,1.7,3,3.3,5,3.7c0.5,1,0.9,2.1,1.3,3.1c-1.3-0.2-2.6-0.4-3.8-0.9c-1.3-0.5-2.3-1.4-3.4-2.2
		C954.4,137.4,954.6,136.6,954.8,135.8z M957.4,135.4c-0.6-0.4-1.4-1.2-2.1-1.4c0.2-1.2,0.3-2.3,0.2-3.6c0-0.2-0.2-0.4-0.4-0.4
		c0.2-0.2,0.4-0.3,0.5-0.5c1.4,2.2,2.6,4.5,3.7,6.9C958.7,136.2,958.1,135.8,957.4,135.4z M922.8,152c-2.5,2.6-5,5.2-7.5,7.6
		c0-0.1,0.1-0.3,0.1-0.4c0.9-3-0.4-6.3,2.3-8.7c1.2-1.1,2.7-1.3,3.5-2.9c0.3-0.7,0.4-1.3,0.3-2c2.4,0,4.7,0.4,7.1,0.1
		C926.7,147.8,924.8,149.9,922.8,152z M875.1,163.8c-1.4-1.5-2.9-2.9-4.3-4.3c0.2-0.1,0.3-0.2,0.3-0.4c0.3-1.1,0.8-2.2,1.3-3.2
		c0,0,0-0.1,0-0.1c0.1,0,0.2,0.1,0.3,0.1c1.3,0.3,2.9,0,4-0.7c0.8-0.5,1.3-1.4,1.7-2.3C877,156.5,875.9,160.2,875.1,163.8z
		 M870.2,156.1c-0.3,0.6-0.6,1.3-0.8,2c-1.5-1.5-2.9-2.9-4.3-4.4c2.1,0.4,4.1,1.2,6.1,1.8C870.8,155.5,870.3,155.7,870.2,156.1z
		 M901.8,196.3c-2-3.4-4.3-6.7-6.6-9.8c0.1-0.1,0.2-0.1,0.3-0.2c4.2-4.8,10.5-8.4,15.3-12.6c3.4-3,6.8-6.2,10.1-9.4c0,0,0,0,0,0
		c3.3,0.1,6.3,1.4,9.5,2c1.6,0.3,3.6,0.8,4.7-0.6c0.6-0.7,0.8-1.7,1-2.8c0.3,1.2-0.4,3.8-0.4,4c-1,5.2-3.9,3.9-8.1,3.5
		c-4.6-0.5-9.8-1-14,1c0,0,0,0.1,0,0.1c3.9,1.4,8.3,1.1,12.3,1.5c3.1,0.3,7.2,2.1,9.6-0.1c1.3-1.2,2.2-3.2,2.6-5.1
		c0,0,0.1,0.1,0.1,0.1c-0.3,2.9-0.5,3.9,2.8,4.8c3,0.8,6.2,1.3,9.2,1.7c2.6,0.4,7.3,1.7,9.9,0.9c3.9-1.3,5.5-11.4,1.7-10.5
		c0.3-4.4,1.3-10.2-1.6-13.6c-2.6-2.9-3.6-4.4-6.9-3.6c0-0.1,0-0.3,0-0.4c-0.1-3.3,0.1-6.1,0.8-9.1c2,2.5,4.8,3.9,7.9,4.5
		c1.5,3.8,2.8,7.6,4.2,11.3c0.3,0.7,0.6,1.5,0.8,2.2c-0.2,0.2-0.4,0.5-0.3,1c0.3,5.6-2.8,10.6-2.7,16.1c0,0.6,0.1,1.2,0.2,1.7
		c-0.1-0.3-0.3-0.5-0.4-0.2c-1.4,2.7-3.1,5.5-4.1,8.4c-0.4,1-0.7,2.2,0.2,3.1c1.1,1.1,3.8,0.7,5.1,0.9c4.1,0.5,8,1.4,12.1,2.3
		c0,0,0,0,0,0c0.4,1.7,0.7,3.4,1,5.1c0,0.1,0,0.2,0,0.2c-13.2-1.5-26.4-2.9-39.6-4.5c-12.9-1.5-25.8-3.6-38.6-5.2
		c-0.1,0-0.1,0.1,0,0.2c11.9,4.4,25.4,5.2,37.9,6.8c13.5,1.8,27.1,3.3,40.7,4.4c1,5.8,1.9,11.8,3.1,17.6c-11.7-2.1-23.6-4-35.3-5.9
		c-13.1-2.1-26.8-4.6-40.1-4.4C904.7,201.5,903.3,198.9,901.8,196.3z M968.5,179c0,1,0.2,2,0.5,2.9c1.1,3.2,4.2,4.5,7.1,2.9
		c0.3,1.1,0.5,2.2,0.8,3.3c-3.9-0.9-7.8-1.4-11.7-1.9c-0.9-0.1-2.2,0-3.1-0.3c-1.9-0.8-1-3-0.4-4.6c0.8-2,1.9-3.9,2.7-5.9
		c0-0.1,0-0.1,0-0.2C964.8,177.2,966.2,178.5,968.5,179z M971.4,183c-1.7-1.4-1.7-3.9-1.4-5.9c0.3-2.6,0.8-5.2,1.2-7.7
		c0.1-1-1-1.7-1.2-0.5c-0.4,2.5-1.2,5.5-1.4,8.3c-5.2-3.5-0.9-11.8-0.2-17.7c2.9,8,5.5,16.1,7.6,24.4
		C974.4,183.9,972.6,183.9,971.4,183z M940.2,106c5.3,1.4,8.2,6.8,7.8,12.1c-1.3,1.2-1.4,2.8-1.4,4.6c-0.3,0.5-0.6,1-1,1.4
		c-5.5,6.7-16.6,2.8-15.8-6.5c0-0.5-0.5-1.1-0.5-0.3c-0.4,7,3,14.1,11.4,12c2.7-0.7,4.6-2.3,5.9-4.4c0,1.1-0.2,2.1-0.6,3.1
		c-0.1,0.1-0.1,0.2-0.1,0.3c-1,0.9-1.9,1.8-2.9,2.7c0,0,0,0,0,0c-4,0.2-7.8-1-11.7-1.7c0,0,0,0.1,0,0.1c2.4,1.5,6.7,3.4,10,3.2
		c-3.7,3.6-7.2,7.3-10.8,11c0.2-4.8,0.9-9.8,0.7-14.6c0-0.9,0-1.5-0.5-2.3c-0.2-0.3-1.9-1-1.9-1.1c0.1-0.7-0.4-1.6-0.9-1.5
		c0.7-4.7,1.3-9.6,4.5-13.3c4.3-5.1,12.2-2,12.9,4.5c0,0.1,0,0.2,0,0.3c-1.8-2.4-6.3-2.2-8.5-0.3c-1.8,1.6-2.4,3.9-2.4,6.2
		c-0.2-0.2-0.3-0.4-0.4-0.6c-2.7-3.9-2.1-9.7,3.1-10c2.6-0.1,4.9,1.2,6.9,2.6c0.2,0.1,0.2-0.5,0.1-0.5c-2.4-2.8-6.4-4.8-9.9-2.8
		c-2.8,1.6-3.2,4.8-2.5,7.7c0.7,3,2.5,6.9,5.6,8.1c3.2,1.3,6.3-1,7.8-3.8c2.9-5.5,0.1-14.7-6.7-15.7c-8.4-1.3-10.4,11.4-10.7,17.7
		c-0.1,0.1-0.2,0.2-0.3,0.4c-0.2,0.3-0.3,0.7-0.4,1.1c0.2,1.5-0.5,1.5-2.1-0.1c0-0.3-0.2-0.6-0.4-0.9
		C926.3,117,928.9,103.1,940.2,106z M937.6,124.2C937.6,124.2,937.6,124.1,937.6,124.2c-0.8-0.9,0.2-3.6,0.8-4.3
		c0.7-0.9,1.7-1.3,2.8-1.5c0.5-0.1,1.1,0,1.7,0c-0.1,0-0.1,0-0.2,0.1c-1,0.3-2,0.6-2.8,1.4c-1,1.1-1.7,2.9-1.2,4.4
		C938.4,124.4,938,124.3,937.6,124.2z M938.9,124.4c-0.2-1.7,0.8-3.6,2.4-4.3c0.5-0.2,3.3-1.4,3.7-0.8c0,0,0.1,0.1,0.1,0.1
		c-0.5,2.5-2,4.6-4.9,4.9C939.7,124.5,939.3,124.5,938.9,124.4z M941.6,117.2c-1.5,0-2.8,0.4-3.7,1.7c-0.8,1.1-1,2.4-1.1,3.7
		c0,0.3-0.1,0.7,0,1.2c-0.6-0.3-1.2-0.7-1.7-1.2c-0.3-3,1.1-6.1,4.2-7c2-0.6,4,0.2,6,0.7c0,0,0,0,0,0c0,0.6,0,1.2,0,1.8
		C944.4,117.3,942.8,117.3,941.6,117.2z M922.5,129.8c0.2-1,0.5-1.1,1.1-1.8c0.4,1.3,1.1,2.4,2.5,2.4c1.6,0,1.9-1.1,2.2-2.4
		c0.5,0.6,1.1,1.1,1.3,2.2c0.4,1.8-0.3,4.3-0.4,6.2c-0.2,2.7-0.3,5.4-0.3,8.1c-2.2,0.3-4.5,0.5-6.5-0.2c0.3-3.8,0.3-7.6,0.2-11.4
		C922.5,132,922.3,130.7,922.5,129.8z M898.7,124.1c7.6-1.9,17.7,4.7,21.4,11.3c0.1,0.3,0.5,0.3,0.8,0.3c0,2.7,0.1,5.5,0.4,8.2
		c-0.1,0-0.2-0.1-0.3-0.1c-4.5-10.4-13-18.5-24.8-13.1c-8.5,3.9-14,12.3-17.5,21.2c0.2-0.6,0.4-1.1,0.5-1.6c0.9-2.6,1.3-5.2,1.4-7.9
		c0,0-0.1-0.1-0.2-0.1c0.2-0.1,0.4-0.3,0.4-0.4c-0.3-0.9-0.7-1.8-1.2-2.7C883.7,133,891.6,125.9,898.7,124.1z M877.4,139.5
		c0,0.1,0.1,0.2,0.1,0.2c0.5,0.9,0.9,1.7,1.2,2.7c0,0.1,0.1,0.1,0.1,0.1c-0.2,0.1-0.3,0.2-0.3,0.4c-0.2,3.4-0.6,7.9-2.6,10.8
		c-1.3,2-2.7,0.7-4.5,0.1c-1.6-0.5-3.2-0.8-4.8-1c-0.4-0.1-1.5,0.4-1.8,0.6c-0.3-0.3-0.6-0.6-0.8-0.9c0.6,0,1.6-0.2,1.7-0.7
		c0.6-5.3,2.2-10.3,3.5-15.4c0.6-2.1,1.6-5.1,2-7.9c0.8,1.8,1.7,3.6,2.7,5.3C875,135.8,876.4,137.6,877.4,139.5z M784.6,87.3
		c1.7-6.4,5.1-11.8,9.2-17c8.9-11.6,19.1-22.8,29.9-32.6c8.1-7.3,18-14.7,29.4-13.9c9.5,0.7,17.4,3.2,24,10.4
		c13,13.9,15.2,30.5,11.9,48.6c-0.9,4.9-2.1,9.7-4,14.3c-1.9,4.5-4.4,8.6-6,13.2c-2.1,6.1-3.3,12.6-4.5,18.9c-0.6-1-1.1-2.1-1.4-3.2
		c-0.6-2.8,0.5-6.2,1.1-8.9c2.1-9.3,7.6-17.1,10.3-26.2c2.1-7.3,4.6-15.3,4.3-23c-0.2-4.3-0.6-8.9-1.8-13.1
		c-1.3-4.7-4.2-8.7-6.8-12.8c-7.5-11.4-23.8-18.4-37.2-13.5c-5.7,2.1-11.1,6.8-15.8,10.6c-8.1,6.5-14.8,14.3-21.6,22
		c-10.9,12.5-26.1,28.8-17.6,46.4c0.1,0.2,0.5,0.2,0.9,0.1c0,0,0,0,0,0c1.2,1.5,0.4,2.5-2.4,3.1c-0.2-0.2-0.5-0.4-0.7-0.6
		c-0.5-0.2-0.7-0.4-0.9-0.6c0.3-0.1,0.5-0.3,0.5-0.4c-0.8-2.1-1.8-4-2.3-6.3C782.1,97.6,783.2,92.4,784.6,87.3z M790.6,112.3
		c0.7-1,0.7-2.1,0.5-3.2c0.6,0.5,1.1,0.9,1.7,1.4c0.8,0.7,0.7,1.5-0.1,2.2c-0.9,1.5-1.8,1.1-3.3,0.5
		C789.8,113.1,790.2,112.8,790.6,112.3z M785.8,114c-0.7-0.7-2.3-1.4-1-2.1c1.2-0.6,1.1,0.2,2.1,0.9c0.5,0.3,1,0.5,1.5,0.6
		c-0.2,0.2-0.5,0.5-0.7,0.7c-0.4,0.4-0.4,1.2-0.2,1.7C787,115.2,786.4,114.6,785.8,114z M793.7,126c-0.6-0.7-0.6-1.1-0.9-1.9
		c-0.1-0.3-0.2-0.4-0.3-0.6c0.2,0.1,0.5,0.2,0.7,0.2c3,0.5,6.8,0.7,7.5-2.8c0.1-0.4-0.5-1.4-0.9-0.7c-0.9,1.6-5,1.5-6.7,1.1
		c-2.1-0.5-3.2-2.6-4.5-4.1c-0.2-0.2-0.4-0.5-0.6-0.7c0.1,0,0.3,0,0.5-0.2c1.1-1.1,3.8,0.5,5.3-0.7c0.8-0.7,1.2-1.5,1.2-2.6
		c0-2.5-2.3-6.9-5.1-6.7c-6.1-13.6,2.1-26.2,10.6-36.8c11-13.7,22.6-26.6,37.1-36.7c8.7-6.1,18.5-5.5,27.8-1.1
		c8.2,3.8,13.2,10.8,17.5,18.5c7.2,13.2,3.3,31.6-1.6,44.9c-3.3,8.9-8.2,16.5-9.8,26.1c-0.1,0.6-0.3,1.3-0.4,2c-0.1,0-0.2,0-0.3,0
		c-1-1.8-3.3-1.6-5.4-1.8c-5.4-0.6-10.7-1.2-16.1-1.9c-0.2,0-0.6,0.1-1,0.3c-1.4-0.5-2.9-0.7-4.4-0.8c-0.2,0-0.4,0.2-0.5,0.4
		c-0.2,0.6-0.2,1.2-0.3,1.8c-0.8-1.9-5.9-4.5-7.4-4c-0.8,0.3-1.5,1.2-2.2,1.7c-0.6-1.9-2.6-3.7-4.1-4.9c-0.7-0.5-1.4-0.8-2.2-0.9
		c-1.7-0.2-3.1-0.2-4.7-0.7c-0.7-0.2-0.8,0.9-0.6,1.4c0,0,0,0,0,0c-2.2-0.9-2.1-1.7-3.1-3.1c-1.4-2-4.8-3.5-7.2-2.4
		c-4.4-4.8-8.9-13.8-16.3-11.7c-2.5,0.7-5,1.5-4.3,4.6c0.7,3,3,6.2,4.4,8.8c4.4,8.1,9.1,16.2,13.9,24.1c-0.1,0-0.1-0.1-0.2-0.1
		c-2.6-0.1-5.2-0.5-7.7-0.8c-2.6-0.3-5.8-0.4-6.3-3.5c0.9,0.7,1.8,0.8,3,1c1.6,0.3,3.1,0.7,4.7,0.8c0.8,0.1,0.9-1.8,0.1-2
		c-2.5-0.7-5.8-0.4-7.8-2.2C794.6,126.9,794.1,126.4,793.7,126z M807.8,136.3c0.2,0,0.4,0,0.6,0c0,0.7-0.2,1.3-0.8,1.7
		C807.9,137.5,807.9,136.8,807.8,136.3z M802.6,144c-2.2-0.4-6.6-0.5-7.7-2.8c-0.9-1.9-0.1-6.2-0.1-8.7c0.5,0.8,1.3,1.5,2.3,1.9
		c1.7,0.7,3.6,1.1,5.6,1.4c0,0.2,0,0.3,0.1,0.5c-0.2,0.6-0.1,1.4,0.1,2.3c0.1,0.8,0.5,1.1,0.9,1.1c0.6,0.8,1.7,1.1,3.6,0.9
		c3-0.3,2.4-3.4,2.4-5.6c0-0.1,0-0.1,0-0.2c2.4,3.8,4.8,7.6,7.3,11.4C812.3,145.5,807.4,145,802.6,144z M775.7,171
		c1-0.1,2.1-0.6,2.7-1.5c0.5,0,1.1-0.1,1.4,0.1c0.8,0.5,0.5,1.2,0.9,1.6c0.4,0.4,0.8,0.6,1.2,0.8c-0.3-0.1-0.7,0.1-1.1,0.2
		c-0.6,0.2-1.2,0.3-1.8,0.5c-0.5,0.1-0.4,1.4,0.2,1.3c0.6-0.1,1.2-0.2,1.9-0.3c0.6-0.1,1.1-0.1,1.4-0.6c0.2-0.2,0.1-0.7,0-0.9
		c0.4,0.3,0.8,0.6,1,1.5c0.3,1,0.2,1,0.6,2c0.2,0.4,1.1,0.8,1,1.5c-2.3,0.6-4.6,1.4-6.9,2.3c-0.2-0.2-0.4-0.3-0.6-0.5
		c-0.4-2.1-0.1-4.1-0.3-6.3c0-0.2-0.1-0.5-0.3-0.6c-2.3-0.7-2.4-0.3-2.4-3.2c0-0.2-0.1-0.6-0.4-0.6c-1.8,0.2-2.9,0.7-3-1.5
		c0-0.2-0.1-0.5-0.3-0.5c-0.8-0.2-1.6-0.1-2.4,0.1c-1.5-0.8-1.8-1.6-0.8-2.5c0.4-2.8,3.6-4.3,5.5-1.5c0.7,1,4.2,6.3,4.2,6.5
		c0,0.1,0.1,0.2,0.1,0.3c-0.1,0.1-0.2,0.2-0.4,0.3c-0.5,0.3-0.9,0.6-1.5,0.8C775.4,170.4,775.5,171,775.7,171z M767.2,161.6
		c0.2,0.1,0.3,0.2,0.5,0.2c0.1,0,0.3,0,0.5-0.1c-0.7,1-2.6,3.2-2,4.5c1.1,2.5,4.4-0.7,4.5,3c0,0.2,0.1,0.6,0.4,0.5
		c2.8-0.2,2.9,0,2.8,2.7c0,0.2,0.1,0.6,0.4,0.6c2.3,0,2.3,2.9,2.5,5.3c-0.5-0.4-1.1-0.7-1.3-0.9c-5.4-4-11.7-7.9-15.6-13.5
		c-0.8-1.2-1.6-2.4-1.8-3.9c-0.6-3.5,0.9-3,3.5-1.9c1.8,0.7,4.2,1.8,5.7,3.2C767.2,161.5,767.1,161.6,767.2,161.6z M768.8,160.9
		c-0.1,0-0.1,0-0.2,0.1c-3.1-2.8-13.4-8.3-12-0.4c0.7,4,4.8,7.5,7.7,10.1c2.7,2.3,5.5,4.4,8.4,6.4c0.9,0.7,3,1.9,4.3,2.9
		c0,0,0,0,0,0c-0.1,0.1-0.3,0.1-0.4,0.2c-0.7-0.3-1.4-0.4-2-0.7c-6-2.8-12.3-7.7-16-13.2c-1.4-2.1-5.5-11.1-1.1-11.8
		c2-0.3,6,2.3,7.6,3.1c1.5,0.8,3,1.6,4.4,2.4C769.3,160.2,769,160.6,768.8,160.9z M812.2,187.4c-3-1.3-6.4-1.9-9.6-2.6
		c-2.6-0.5-4.1-0.2-5.1-2.1c9.5,1.9,20,5.1,26.5,12.5C819.8,194.1,816.4,189.3,812.2,187.4z M802.4,194.2c-2-3-3.3-6.2-4.7-9.5
		c0.1,0,0.3,0.1,0.5,0.1c4.2,1.3,8.7,1.4,12.8,3.2c1.1,0.5,2.1,1.1,3.1,1.8c-0.2,0.1-0.3,0.1-0.4,0.2c-3.6,2.1-7.3,3.6-11.2,4.5
		C802.5,194.4,802.5,194.2,802.4,194.2z M810.2,212.6c-0.2,0-0.3,0.2-0.4,0.4c-1.4,1.5-2.8,3-4.3,4.4c-3.2,2.9-7,3.5-11,4.6
		c-1.6,0.4-4,1.6-5.5,1.4c-3.3-0.4-5-2.2-6.1-4.9c-1.5-3.5-2.9-7.1-4.4-10.6c0-0.1-0.1-0.1-0.1-0.1c1.9-2.7,7.7-3.6,10.2-4.6
		c3.2-1.3,6.5-2.4,9.5-4.2c0.9,2.7,1.7,5.4,2.6,8.2c0.5,1.5,1,5.8,2.6,6.7c1.6,0.9,4.6-0.2,7.1-1.4
		C810.4,212.4,810.3,212.5,810.2,212.6z M797.7,197.4C797.7,197.4,797.7,197.5,797.7,197.4c0,0.1-0.1,0.1-0.2,0.1
		C797.6,197.5,797.7,197.5,797.7,197.4z M961.1,328.9c-20.1,5.1-40.2,10.2-61.1,7.1c-6.8-1-13.4-2.8-20-4.7c-4.5-1.3-8.9-2-12.9-4.5
		c-7.7-4.7-14.4-10.9-21.8-16.1c-7.6-5.3-16-8-19.9-17c-1.8-4.2-3-8.7-4.4-13c-1.9-5.6-4.4-10.9-6.5-16.4
		c-2.1-5.5-4.2-11.1-5.6-16.8c0-0.2-0.2-0.3-0.3-0.4c0.7-0.5,1.4-1,1.9-1.4c0.4-0.3-1.5-0.1-2,0.2c-3.7,2.7-10.2,7.2-13.7,2.4
		c-1.3-1.8-1.9-3.9-3-5.7c-1.3-2-2.9-3.9-5.3-4.4c-2.3-0.5-3.3,0.8-5.4-1.6c-1.4-1.6-2.2-5.3-3-7.3c-2-4.9-4-9.7-6-14.6
		c-1.6-4-7.1-12-2.7-15.8c1.7-1.4,2.7-1.3,3.6-3.4c-0.7-1.8,0.1-3.2,2.2-4.2c1.9-0.8,3.8-1.5,5.8-2.1c2.4-0.7,4.2-1.7,6.4,0
		c1.7,1.3,2.9,3,4.8,4.2c1.9,1.2,3.2,2,3.7,4.4c0,0.1,0.2,0.1,0.4,0.2c-4.6,1-9.2,2.9-13.4,4.7c-2.8,1.2-4.9,2.3-5.4,4.9
		c-0.6,0.1-1.1,0.5-1,0.9c1.8,4.5,3.2,10.7,6.2,14.5c1.8,2.4,4.1,2.1,6.8,1.5c4.6-1,10.2-1.8,14.5-3.9c2.5-1.3,4.7-3.5,6.7-5.8
		c1.5,3.3,3,6,5.2,8.9c1.9,2.6,2.9,4.4,1.6,7.4c-1.1,2.5-1.3,2.3-3.2,3.6c-1.8,1.2-3.3,2.5-4.8,4c0,0,0,0,0,0
		c-0.2-1.4-0.3-2.9-0.3-4.3c0-1.3,0.2-2.1,0.5-2.8c0,0,0.1,0,0.1-0.1c0.3-0.3,0.4-0.5,0.3-0.7c0.6-1,1.4-1.8,2.1-3.3
		c1.7-3.7,0.3-7.7-1.8-10.9c-0.4-0.5-0.7,0.3-0.6,0.7c1.5,2.9,1.4,3.2,0.8,7.1c-1.4,8.3-0.3,2-1.7,5c-0.2,0.5-0.5,0.9-0.7,1.3
		c-5,4.2-12,8.6-18.6,5.1c-5.5-2.9-7.1-10.5-9.3-15.9c-1.9-4.8-4.6-9.8-5.6-14.9c-0.8-4.2,1.1-5.4,2.8-8.7c0.8-1.6,1.1-2.6,0.7-4.4
		c-0.2-1-2.4-0.4-2.2,0.6c0.8,3.4-3.5,6.5-3.8,10c-0.3,3.2,1.3,6.3,2.4,9.2c2.6,6.6,4.7,14,8.2,20.2c5.7,10.3,17.2,6.7,24.9,1.1
		c-0.2,3.9,1.3,8.6,1.8,12.2c0.1,0.4,0.5,0.3,0.5-0.1c0-1.7-0.2-3.4-0.4-5.1c0.1,0.1,0.2,0,0.4-0.1c3.9-3.4,10.6-4.7,9.8-10.8
		c-0.4-2.7-1.5-4.7-3.1-6.9c-1.2-1.7-2.4-3.3-3.4-5.2c-0.6-1.1-1.1-2.2-1.8-3.2c0.9-1.1,1.8-2.1,2.7-3c2.6-1.5,4.8-3.4,6.8-5.8
		c0.3-0.3-0.1-0.6-0.4-0.6c-0.1,0-0.2,0-0.3-0.1c3-0.4,6.1-0.8,9.3-1c3.8,3.7,7.9,7.2,12.2,10.4c7.3,5.4,15.6,8.5,23.2,13.2
		c5.7,3.5,10.1,8.6,15.2,12.9c6.8,5.8,14.2,11,22.3,14.9c12.7,6.1,26,12.1,36.9,21.1c0.7,0.6,1.4,1.1,2.1,1.7
		c-0.3,0.1-0.5,0.3-0.5,0.4c0,0,0,0.1,0,0.1c1.7,1.3,2.8,4.8,3.7,6.6c2.2,4,4.5,8,7.1,11.8c4,5.9,9.3,10.1,15.2,14.2
		c5.3,3.7,10.8,7.1,16.5,10.3c0.4,0.3,0.9,0.5,1.2,0.6C976.9,324.5,969.1,326.8,961.1,328.9z M929.2,266.4c4,3,8,5.9,12.3,8.5
		c0.3,0.2,0.6,0.3,0.8,0.5c5.2,3.9,10.3,8,15.4,12.1c9.7,7.7,18,17,26.5,26c1.4,1.4,3.2,2.9,4.3,4.6c0.9,1.4,1,1.3-0.3,0.6
		c-4.5-2.8-8.5-8.1-12.2-11.8c-4.7-4.6-9.1-9.6-13.9-14.1c-3.3-3.1-6.8-5.9-10.3-8.6c-0.3-0.5-0.7-0.9-1.1-1.3
		c-1.8-1.9-4.5-3.3-6.9-4.8c-0.5-0.4-1-0.8-1.5-1.2c-10.7-8.4-22.3-14.6-34.5-20.5c-8-3.9-15.5-8.2-22.5-13.6
		c-5.9-4.6-10.9-10.4-17-14.7c-7.4-5.3-16.2-8.1-23.6-13.4c-4.8-3.4-9.3-7.2-13.5-11.3c0,0,0,0,0.1,0c3.3,0.7,6.1,4.9,8.8,7
		c5,3.9,10.3,6.9,16,9.6c4.1,1.9,8.4,4.1,12.1,6.7c3.5,2.5,6.3,5.8,9.5,8.6c4.8,4.2,10.3,7.8,15.6,11.4c9.8,6.6,20.4,11.4,30.8,17
		C925.8,264.4,927.5,265.4,929.2,266.4z M934.3,260c-0.1-0.1-0.2-0.2-0.3-0.3c-2.3-3.1-3.8-7.1-5.9-10.4
		c-4.5-7.2-10.2-13.7-15.4-20.4c1,0.3,2.1,0.7,3.1,1c0,0,0,0,0,0.1c1.7,3.3,4.9,6.1,7.2,9c3.3,4.2,6.7,8.5,9.4,13.1
		c2,3.5,3.9,7.1,5.7,10.8C936.9,261.9,935.6,261,934.3,260z M909.6,228.2c6.9,9.2,14.3,17.9,20,27.9c-9.8-8.4-18.7-17.6-27.5-27
		c-1.5-1.7-3.2-3.9-4.9-5.8c4.1,1.6,8.2,3.1,12.4,4.5C909.6,228,909.5,228.1,909.6,228.2z M890.7,221.3c3.3,1.8,6.2,6.1,8.8,8.9
		c10,10.8,20.3,21.2,31.7,30.6c1.9,1.6,3.9,3,5.9,4.4c1,1,2.4,2.2,3.6,2.4c10.4,6.6,21.8,11.4,33.4,15.4c13.3,4.6,28.5,5.1,42.2,1.4
		c15.3-4.1,27-18.3,33.1-32.4c0.3,0,0.7,0.1,1,0.1c1.5,0.2,2.3,0.6,2.3-0.1c0,2.1-3.3,6.2-4.2,7.9c-4.9,9.2-9.4,16.6-18,22.8
		c-6,4.3-11.1,6.5-18.5,7.4c-7.9,0.9-16,1.2-24,0.9c-15.2-0.7-29.3-8.7-42.2-16.3c-14.9-8.8-27.5-20.9-40.2-32.5
		c-5.9-5.4-11.4-11.3-16.8-17.2c-2.1-2.3-4.3-4.6-6.4-7C885.2,219.1,888.1,219.9,890.7,221.3z M1020.8,281.4
		c-6.6-6.9-12-15.6-16-24.2c-1.6-3.5-2.5-7.7-5-10.6c-0.2-0.3-0.5-0.5-0.8-0.7c16,1.9,32.1,3.4,48.1,5.4c0,0-0.1,0.1-0.1,0.1
		C1042.1,263.3,1033,275.8,1020.8,281.4z M997.2,246.5c1.2,1,2.1,3.5,2.8,5c1.7,3.5,2.9,7.1,4.8,10.5c4,7.2,8.2,14.3,13.9,20.3
		c-0.5,0.2-1,0.4-1.5,0.5c-0.5,0.1-1.1,0.1-1.5,0.2c-0.5,0.1-0.8,0-0.9,0c-0.9-0.9-1.6-2.9-2.1-3.8c-1.9-3.1-4-5.9-5.9-8.8
		c-3.3-5-5.9-10.2-8.4-15.6c-0.6-1.2-4.1-6.9-4.6-9.5C995,245.5,996.5,245.9,997.2,246.5z M1032.4,300.3c-3.6-3.7-7.7-6.7-11.4-10.3
		c0.1-0.1,0.2-0.1,0.3-0.2c0.6-0.2,1.3-0.5,1.9-0.8c0.1,0,0.1-0.1,0.2-0.1c3.9,3.6,7.9,7.2,11.8,10.8
		C1034.3,300,1033.4,300.1,1032.4,300.3z M948.9,283.8c1.9,2,3.2,5,4.4,7.5c1.4,2.9,3.1,5,5.5,7.3c5.6,5.3,11.8,10,18.1,14.5
		c2.5,1.8,5.1,3.6,7.7,5.4c0.8,0.5,1.8,1,2.4,1.7c0.1,0.1,0.2,0.2,0.2,0.2c-0.4,0.2-0.8,0.3-1.2,0.5c-2.7-1.1-5.8-3.7-7.8-5
		c-5.3-3.3-10.6-6.7-15.6-10.6c-5.5-4.4-9.3-9.7-12.9-15.8c-1.7-2.9-3.3-5.9-5-8.9c0,0,0,0,0,0C946.3,281.5,947.8,282.6,948.9,283.8
		z M953.6,287.1c2.1,1.6,4.1,3.3,6,5.1c5.4,4.9,10.2,10.4,15.4,15.5c2.4,2.3,4.7,4.6,7.1,6.9c-0.7-0.5-1.5-1-2.2-1.6
		c-6.4-4.6-12.7-9.3-18.5-14.7c-3-2.8-4.9-5.7-6.8-9.3C954.3,288.5,954,287.8,953.6,287.1z M992.7,317.8c-0.6,0.3-1.2,0.6-1.9,0.9
		c0,0,0,0,0,0c0-0.5-1.5-1.8-1.8-2.1c-2-2.2-4.1-4.3-6.1-6.4c-4.6-4.8-9.3-9.6-13.9-14.4c-4.9-5-10.5-9.3-16-13.6
		c-0.9-0.7-1.8-1.4-2.7-2.1c10.5,6.1,22,11.5,33.9,12.3c7.5,0.5,15,0.3,22.4-0.3c3.9-0.3,8.1-0.6,12-1.5c1.4,1.4,2.8,2.7,4.3,4
		c1.7,1.5,3.5,2.9,5.2,4.5c0.7,0.7,1.5,1.7,2.3,2.3C1017.3,305.3,1005.2,311.6,992.7,317.8z M1147.3,271.8c0.1,0,0.1,0.1,0.1,0.1
		c-9.4-0.4-18.7-1.8-27.9-4.1c-0.1,0-0.2,0-0.3,0c-0.4-1.4-0.8-2.9-1.1-4.5C1128.1,265.8,1137.9,268.5,1147.3,271.8z M1156.5,275.6
		c2.7,4,0.5,10.3-1.5,14.2c-2.4,4.7-6.2,8.3-10.6,11.1c-1-0.4-2-0.8-3-1.2c7.6-6.1,16.7-17.2,10.2-26.1c1.6,0.6,3.2,1.2,4.8,1.9
		C1156.4,275.4,1156.4,275.5,1156.5,275.6z M1151.4,297.5c0.3,1.7,1,3.1,1.9,4.6c-1.5-0.7-3.1-1.3-4.6-1.9c-0.1,0-0.3,0-0.4,0
		C1149.3,299.3,1150.4,298.4,1151.4,297.5z M1122.6,294.1c-4-4.4-7.3-11.3-9.5-16.6c-1.5-3.6-2.7-7.3-3.9-11
		c0.2,0.1,0.4,0.2,0.6,0.2c0.5,2.9,1.8,5.8,3.1,8.4c3.2,6.4,7.5,13.3,12.7,18.4c0.6,0.6,1.2,1.1,1.8,1.6
		C1125.9,294.8,1124.2,294.4,1122.6,294.1z M1105.2,261.1c0.1,0.3,0.3,0.7,0.3,0.8c1.2,3.9,2.5,7.7,3.8,11.6
		c1.2,3.6,2.7,6.9,4.5,10.3c1.2,2.2,2.5,4.4,3.9,6.6c0.4,0.7,1,2.1,1.7,3.1c-0.2,0-0.4-0.1-0.5-0.1c-0.9-0.3-1.8-0.7-2.7-1.2
		c-3.7-1.8-3.2-1.6-5-5.7c-3.8-8.5-8.2-16.9-9.5-26.1c0.9,0.2,1.7,0.4,2.6,0.5C1104.3,260.9,1104.8,261,1105.2,261.1z M1132.1,296.4
		c-2.9-1.7-5.3-4.4-7.3-6.8c-4.7-5.8-11.8-14.8-12.9-23.2c0,0,0,0,0,0c0.1-0.3,0.1-0.5-0.1-0.7c-0.1-1.2-0.1-2.3,0-3.5
		c0.9,0.2,1.8,0.3,2.6,0.6c2,0.8,1.2,0.1,1.9,2.2c1.8,5.3,2.4,10.4,5.8,15.1c3.2,4.4,6.9,8.6,11.1,12c1.9,1.5,4,2.9,6.1,4.2
		c0.2,0.1,1.7,0.7,1.8,1c0.2,0.6-0.6,0.2-0.8,1c0,0.1,0,0.1-0.1,0.2c-0.1,0.1-0.1,0.1-0.2,0.2c-0.5-0.1-1-0.2-1.5-0.4
		c-0.2-0.1-0.5-0.1-0.7-0.2C1135.9,297.5,1134,296.9,1132.1,296.4z M1150.6,285.5c-0.6-3.8-1.2-7.5-1.1-11.3
		C1152.1,277.8,1152,281.7,1150.6,285.5z M1148.8,288.1c0,0.2,0.2,0.3,0.4,0.4c-1.7,2.9-4,5.6-6.5,7.9c-11-6.2-19.1-15.4-22.9-27.1
		c8.9,2.1,17.9,3.3,27,3.7c0.1,0,0.4-0.1,0.6-0.1C1147,278,1147.8,282.9,1148.8,288.1z M1139.9,298.7c-0.1,0-0.1,0.1-0.2,0.1
		c-0.1,0-0.1,0-0.2-0.1C1139.6,298.8,1139.7,298.7,1139.9,298.7z M1109.7,261.8c-0.2,0.9-0.2,1.8-0.2,2.6c-0.2-0.1-0.3-0.3-0.4-0.4
		c-0.2-0.2-0.5-0.3-0.7-0.3c-0.3-0.9-0.5-1.7-0.8-2.6c0.8,0.2,1.6,0.3,2.4,0.5C1109.8,261.7,1109.8,261.8,1109.7,261.8z
		 M1099.3,260.4c-0.7-0.4-1.4-0.8-2-1.3c0.6,0.1,1.2,0.2,1.8,0.3C1099.2,259.8,1099.3,260.1,1099.3,260.4z M1094.4,259.1
		c1.4,1.4,3.2,2.5,5.1,3.1c0,0,0.1,0,0.1,0c0.8,4.7,2.4,9.2,4.3,13.6c2.1,4.7,3.8,10.4,6.6,14.7c0.1,0.1,0.2,0.2,0.3,0.4
		c-6.5-2.3-13-4.8-18.8-8.5c-3.7-2.3-11.6-6.3-11.5-11.4c0.1-6.2,7.2-10.7,12.3-12.4c0.2-0.1,0.3-0.1,0.4-0.2
		c0.4,0.1,0.9,0.2,1.3,0.2C1094.3,258.8,1094.2,258.9,1094.4,259.1z M1084.4,257.4c0,0,0.1-0.1,0.2-0.2c1.3,0.7,5,0.9,6.8,1.1
		c-3.8,1.4-7.7,3.6-10.2,6.7c-4.6,5.6-2.8,9.7,2.4,13.5c8.5,6.3,17.7,10.3,27.4,13.8c-0.7-0.1-1.5-0.2-2.2-0.2
		c-1.2-0.1-2.5,0-3.9,0.1c-0.1,0-0.2,0-0.3,0c-1.1,0-2.3,0-3.4,0c-0.2,0-0.4-0.1-0.5-0.1c-2.2-0.6-4.5-2.6-6.5-3.7
		c-3.3-1.9-6.6-3.8-9.9-5.7c-3.3-2-6.4-3.8-7.9-7.7c-1.8-5,0.1-9.2,3.4-13C1081.2,260.3,1083,259,1084.4,257.4z M1146.9,301.9
		c-0.3-0.1-0.5-0.3-0.8-0.4c0.2-0.2,0.5-0.3,0.7-0.5c2.5,1,5.1,2,7.4,3.3c0.1,0.1,0.2,0.1,0.4,0.1c0.7,1.2,1.5,2.4,2.2,3.6
		C1153.8,305.7,1150.5,303.7,1146.9,301.9z M1162,312c-1.5-2.4-3-4.8-4.5-7.2c-1.8-2.9-4.2-5.8-4-9.4c0,0,0-0.1,0-0.1
		c1.4-1.6,2.6-3.4,3.6-5.3c0.8-1.5,1.5-3.2,2-5.1c0.2,1.4,0.4,2.9,0.9,4.3c1.1,3.7,1.7,7.8,3.5,11.2c3.5,6.5,9.8,11.2,15.3,15.9
		c-3.1,0.5-6.7,1-9.5,2.4C1167,316.4,1164.5,314.2,1162,312z M1205.2,304.2C1205.2,304.2,1205.2,304.2,1205.2,304.2
		c-6.1,2-12.7,5-19.1,5c-4.5,0-8.9-0.9-13.4-0.6c-0.9-0.9-1.8-1.7-2.6-2.6c11,0.6,21.8,0.3,32.1-4
		C1203.2,302.7,1204.2,303.4,1205.2,304.2z M1214.4,311.4c-4.8-0.2-10.3,1-15.1,1.6c-6.1,0.7-12.1,1.7-18.1,2.9c0,0,0,0,0,0
		c-2.4-2-5-4.1-7.5-6.3c5.3,0,10.5,1.2,15.8,0.3c5.6-1,11.1-3.3,16.5-5c0,0,0,0,0,0C1208.9,307,1211.7,309.2,1214.4,311.4z
		 M1176.8,320.6c-1.2,0.2-2.8,0.9-4,0.8c1.1,0.1-1.1-1.3-2.1-2c3.5-1.7,8.7-2,12.2-2.7c6-1.1,12-2,18-2.7c4.2-0.5,8.7-1.4,12.9-1.4
		c1.2,0,0.5,0,0.7,0.1c0.9,0.3,1.9,0.9,2.8,1.5c-8.2,1.7-16.4,2.8-24.8,3.8C1187.3,318.7,1182.1,319.6,1176.8,320.6z M1201.2,301.2
		c-10.3,4.3-21.2,4.2-32.2,3.5c-1.6-1.9-3-3.9-4-6.1c-2.9-6.5-4.1-14.2-3.8-21.3c2.1,0.9,4.2,1.9,6.2,2.9
		C1179.3,286,1190.5,293.3,1201.2,301.2z M1083.8,256.8c-0.5,0.2-0.9,0.5-1.4,0.9c-6.7,5.5-13.5,15.6-4.8,22.8
		c2.9,2.4,6.5,4.1,9.7,5.9c3.3,1.9,6.7,4.3,10.2,5.8c0.1,0,0.1,0,0.2,0.1c-8.9,0.3-17.9,1.4-26.7,2.6c-10.9,1.4-22,2.2-32.8,4.6
		c-0.1,0-0.2,0-0.2,0.1c-4.2-3.8-8.3-7.6-12.5-11.5c6.3-3.3,12.6-8.2,17.1-13.5c5.4-6.3,9-14.8,12.8-22.2c2.8,0.4,5.7,0.8,8.5,1.3
		C1070.4,254.6,1077.1,255.6,1083.8,256.8z M978.2,243.1c4.4,0.7,8.8,1.3,13.3,1.8c0,1.7,2.6,5.7,3,6.8c2.1,4.6,4.2,9.3,6.7,13.7
		c3.6,6.4,8.1,12.2,11.8,18.5c-7.5,1.5-15.5,1.8-23.2,1.1c-7.5-0.8-14.5-3.4-21.5-6.2c-9.4-3.7-18.2-8-26.4-13.3
		c-1.7-5.5-5.7-11.3-8.5-15.9c-2.1-3.4-4.6-6.5-7-9.6c-2.2-2.9-5.5-5.9-7.6-9.1c1,0.3,2.1,0.6,3.1,0.9
		C940.4,237.1,959.3,240.3,978.2,243.1z M849,204.2c9.3,2.2,18.1,6.4,26.9,10.3c-0.1,0.1-0.2,0.2-0.2,0.3c0,0.1,0,0.1,0.1,0.2
		c3.4,2.1,6.4,6.9,9.1,9.8c5.4,5.8,10.8,11.7,16.6,17.2c7.2,6.7,14.5,13.6,22.2,20c-7.4-3.8-15-7.1-22-11.5c-6.5-4-12.8-8.4-18.9-13
		c-2.8-2.2-5.2-4.5-7.8-7c-4.3-4.2-9.2-7-14.5-9.7c-6.9-3.6-13.6-6.7-19.7-11.7c-2.3-1.9-4.4-4.6-6.9-6.1
		C839,202.8,844.2,203.1,849,204.2z M812,194.7c-2.2,0.1-7.4,2-8.6,4.2c-1.5,2.8,0.4,7.5,3.6,8c0.9,0.1,1.7-0.2,2.6-0.3
		c1.5-0.6,3.1-1,4.8-1c3.2-1.4,4-1,2.6,1.4c-0.5,1.1-2,2.1-3.5,2.8c-0.2,0-0.4,0-0.5,0.1c-1.8,0.7-4.3,2.1-6.2,2.2
		c-2.7,0.2-2.6-1.7-3.3-3.9c-1.3-4-2.5-8-3.8-12c5-0.9,9.6-2.4,14.1-4.8c0.9,1.6,1.5,3,1.9,4.6C814.5,195.6,813.5,194.6,812,194.7z
		 M853.5,197.1c-8-1.1-16.1-1.3-24.1-1c-3.7,0.1-7.6,0.1-11.3,0.7c0.1-0.1,0.1-0.2,0.1-0.3c-0.4-1.8-1-3.4-1.8-5
		c1.6,1.3,3.2,2.7,5,3.9c1.4,0.9,1.9,0.8,3.9,0.8c0.2,0,1.3-0.3,1-0.6c-6.9-8.6-18.9-11.9-29.2-13.8c-0.1-0.1-0.3-0.1-0.5,0
		c-0.7-1.8-1.6-3.9-3.2-5c-0.5-0.4-1-0.5-1.5-0.6c-0.1-0.2-0.2-0.3-0.3-0.3c-1.7,0.2-3.4,0.5-5.1,1c-0.1-0.1-0.3-0.3-0.6-0.8
		c-0.6-0.9-1.2-1.3-1.4-2.6c0-0.2,0.4-0.6,0.4-0.8c-0.3-1-0.3-0.7-1.1-1.4c-0.6-0.5-1.8-0.9-2.4-1.4c0,0,0-0.4,0-0.5
		c-0.2-0.2-0.4-0.5-0.6-0.7c-0.7-0.6-1.8,0-2.6-1.1c-0.3-0.4-0.3-1.6-0.7-2.1c-0.1-0.3-0.6-0.4-0.8-0.6c-3-3.3-2-1.8-3.3-4
		c-0.3-0.5-0.4-1.2-1-1.5c-0.6-0.3-1.1-0.4-1.6-0.2c-4.2-2.6-14.2-9-16.1-3.3c-3.5,10.3,12.1,21.4,20.3,24.7
		c-4.6,0.5-10.8,4.3-13.9,5.6c-0.1,0-0.2,0.1-0.3,0.1c-0.1-0.2-0.3-0.3-0.6-0.3c-4,0.2-14.4,1.6-16.2-3c-0.6-1.5-0.4-4-0.7-5.6
		c-0.4-1.8-1.3-3.6-1.6-5.4c-0.4-2.3-0.4-6.2,1.2-7.9c0.6-0.6,1.4-1.1,2.1-1.7c1.7-1.3,3.3-2.7,4.9-4.2c2.9-2.9,5.5-6.1,7.8-9.5
		c1.7-2.6,3.6-3.7,6.6-3.7c2.6,0,5.3,0.7,7.8,1c5.2,0.7,10.4,1.3,15.6,1.9c10.6,1.3,21.6,3.4,32.2,3.3c0.2,0,0.3-0.3,0.3-0.6
		c0.2,0.3,0.5,0.7,0.7,1c-0.2,0-0.3,0-0.5,0c-0.4,0-0.8,0-1.2,0c-0.4,0-0.4,0.9,0,0.9c0.4,0,0.8,0,1.2,0c0.4,0,0.7,0.1,1.1-0.1
		c0,0,0,0,0,0c2.3,3.3,4.7,6.6,7.2,9.8c-0.5,0-1.2,0.2-1.4,0.6c-0.7,1.5-1.7,5.2-2.9,6.2c-1.6,1.3-3.7,0.7-5.7,0.5
		c-4.7-0.3-9.3-0.9-13.9-2c3.5-3.3,6.1-7.2,9.2-10.9c0.9-1-1.2-1.3-1.8-0.6c-3.3,3.9-5.9,8.1-9.8,11.5c-0.4,0.3-0.6,1,0.1,1.2
		c7.2,1.8,14.4,2.4,21.8,2.7c0.5,0,1.2-0.2,1.4-0.6c1.2-2.6,2.5-5.1,3.7-7.7c0,0,0,0,0,0c2.7,3.5,5.6,7,8.5,10.4
		c1.7,1.9,3.4,3.8,5.1,5.7c-9.4-1.3-18.8-2.4-28.1-4c-9.4-1.6-19-3.2-28.5-3.5c0,0,0,0.1,0,0.1c9.7,1.9,19.5,3.8,29.3,5.6
		c9.2,1.7,18.6,3.7,28,3.8c0.3,0,0.5-0.3,0.6-0.6c5.9,6.4,11.9,12.5,18.2,18.5C859.4,198.2,856.5,197.5,853.5,197.1z M866.4,200.3
		C866.4,200.3,866.4,200.3,866.4,200.3c-15.6-14.7-30.5-30.5-42.6-48.3c-6.5-9.6-12.7-19.5-18.6-29.5c-3.9-6.6-9.3-13.9-11.7-21.3
		c-0.7-2-0.9-3.1,2.1-4c2.6-0.8,4.1,0.9,5.9,2.6c3,2.8,5.4,6.2,8.2,9.2c0.1,0.2,0.5,0.1,0.9,0c-0.1,0.2,0,0.5,0,0.7
		c0.3,0.8,0.8,1.1,1.4,1.6c0.9,0.7,3.8,1.3,2.6,3.2c-1.1,0.6-2.2,1.1-3.3,1.7c-1-0.2-1.8-0.6-2.6-1.2c-0.1-0.1-0.2,0.1-0.1,0.2
		c1.8,2.1,5.4,4.4,6.8,0.8c0.4-1.1,0.5-2.9,0-4c-0.6-1.3-2.5-1.6-3.4-2.5c1.3-0.6,3-0.2,4.1,0.4c1.5,0.8,1.9,2.3,2.8,3.5
		c0.8,1.1,1.1,1.1,2.2,1.8c0.3,0.1,0.6,0.1,0.9,0.1c2.4,1.7,2.9,3.5,1.6,5.4c-1,1.5-2.1,2-3.9,1.9c-2.1-0.1-3.8-0.9-5.3-2.2
		c0.8-0.1,1.6-0.2,2.3-0.9c0.9-0.8,1.3-2,1.6-3.1c0.2-0.6-0.5-1.6-0.8-0.7c-0.8,2.3-2.6,2.8-4.7,3.2c-0.5,0.1-0.7,0.9-0.5,1.3
		c1.8,3.3,5.6,5.4,9.3,4.3c2.9-0.8,4.6-4.9,4.1-7.8c-0.1-0.8-0.5-1.6-1-2.2c1.4,0.2,2.8-0.2,4,0.6c1.4,0.8,2.6,3.3,4.2,3.7
		c-0.7,0.4-1.6,0.7-2,1.3c-1,1.3-0.2,3.5,0.2,4.9c0.3,0.9,1,0.5,1-0.2c1.5,2,3.1,4,4.7,5.9c0.5,0.6,1,1.1,1.5,1.7
		c-0.2,0.2-0.3,0.5-0.1,0.8c0.6,0.7,1.2,1.5,1.8,2.2c0.1,0.7-0.4,1.1-1.5,2c-1.4,1.2-2.9,4-4.4,5c-2,1.3-5,0.6-7.2,1.5
		c-2.9-4.2-5.7-8.6-8.4-13.1c-3.7-6-7.5-11.8-11.3-17.7c-1.9-3-5.6-7.2-5.8-10.8c-0.1-0.9-2.2-0.4-2.2,0.6c0.2,3,3,6.3,4.5,8.7
		c3.6,5.9,7.5,11.6,11.1,17.5c7.4,12,14.8,23.5,24.2,34.1c12.4,14,25.5,27.4,38.2,41.1C873.6,203.1,870,201.6,866.4,200.3z
		 M882,206.9C882,206.9,882,206.9,882,206.9c-2-2.2-3.9-4.2-5.8-6.3c7.5,1.4,15.1,3.2,22.7,3.9c0.1,0,0.2,0,0.3,0
		c2.4,4.3,4.5,8.8,7.1,12.9c-6.1-2.3-12.1-4.7-17.9-7.5C886.3,208.9,884.2,207.9,882,206.9z M914.7,220.4c0.1-0.2,0-0.3-0.1-0.5
		c-1.7-2.1-2.8-5.2-4-7.6c-1.3-2.4-2.5-4.8-3.8-7.1c12.1,2.6,24.7,3.6,37,5.6c7.3,1.2,14.5,2.6,21.7,4c5.6,1.1,11.3,1.5,16.9,2.5
		c0.7,2.8,1.4,5.6,2.4,8.3c1.2,3.4,2.2,8.6,4.5,11.5c0,0,0.1,0.1,0.1,0.1C964.3,233.7,938.9,228.5,914.7,220.4z M996.5,238
		c0.1-0.1,0.1-0.2,0-0.3c-2.5-6.4-5.4-13.1-6.8-19.9c8.5,1.5,17.1,2.8,25.6,4.4c4.2,0.8,10,2.3,12.6-2.4c1.3-2.3,1.2-5.5,1.9-8
		c0.8-2.9,1.9-5.6,2.6-8.5c0.1-0.3,0.1-0.6,0.2-1c3,9.2,10.7,14.8,19.8,18.6c2.8,1.2,5.6,2.3,8.4,3.5c0.9,0.4,2.3,1.2,3.4,1.5
		c-6,4.7-11.3,10.2-13.9,17.4c0,0-0.1,0.1-0.1,0.1c-5.6-0.7-11.1-1.4-16.7-2C1021.2,240.4,1008.8,239.5,996.5,238z M1058.5,244.7
		c2.6-6.8,7.9-11.4,13.7-15.5c1.4,0.6,2.7,1.1,4.1,1.7c0.3,0.1,0.8,0.1,1.1-0.1c0.4,3.5,1.6,6.9,3.8,10.3c1.8,2.9,5.4,6.5,6.7,7.8
		c-6.1-0.9-12.1-1.7-18.1-2.6C1066,245.8,1062.2,245.2,1058.5,244.7z M1108.7,252.1c0.3-0.1,1.4-0.6,2.7-1c-0.3,0.5-0.7,0.9-0.8,1.5
		c-0.7-0.1-1.4-0.2-2.1-0.4C1108.6,252.1,1108.6,252.1,1108.7,252.1z M1163.3,266.2c0.2-0.1,0.3-0.2,0.5-0.3
		c10.7-1,20.6-4.6,30.6-8.4c0.4,0.5,0.8,1,1.2,1.5c0.3,0.4,0.6,0.9,1,1.4c-9.7,2.5-18.7,6.1-28.7,7.4c-0.1,0-0.1,0-0.2,0
		c-0.7-0.3-1.3-0.6-2-0.8C1164.9,266.8,1164.1,266.5,1163.3,266.2z M1214.9,295.9c-0.8-0.6-1.6-1.2-2.4-1.7c0,0,0,0,0,0
		c1.4-1.4,2.7-3,4.3-4.2c0.7,0.8,1.4,1.6,2.2,2.4C1217.7,293.5,1216.3,294.7,1214.9,295.9z M1216.1,289.1c-0.1,0-0.1,0.1-0.2,0.1
		c-1.7,1.1-3.1,2.7-4.5,4.1c-13.1-9.3-26.9-18.3-41.7-24.6c9.5-1.6,18.2-4.9,27.5-7.3c3.1,4.6,5.6,9.6,8.7,14.2
		C1209.1,280.5,1212.4,284.9,1216.1,289.1z M1193.7,256.7c-9.3,3.6-18.7,7-28.6,8.1c2.6-2.8,4.5-6.8,7.3-9.6c3-2.9,6.8-5.1,10.3-7.4
		c0.1-0.1,0.2-0.1,0.2-0.2C1186.9,250.1,1190.6,253.1,1193.7,256.7z M1170.7,242.1c-7.7,5.1-13.7,11.6-19,19.2
		c-7.1-5.1-14.3-10.4-22-14.8c1.2-0.4,2.3-1,3.2-1.3C1145.3,241.5,1158.3,238.7,1170.7,242.1z M1170.8,234.7
		c-6.5-1.3-13.5-0.6-20,0.2c-10.5,1.3-20.5,3.2-30.5,6.6c0,0,0,0-0.1,0c-6.6-3.1-13.4-5.7-20.2-8.5c0-0.1,0-0.3-0.1-0.4
		c10.5,1.1,20.5-0.7,30.9-2.1c13.2-1.8,25.7-2.7,39-1.1c5,0.6,10,1.5,15,2.3c-2.6,1.7-5.2,3.3-7.8,5
		C1175.1,235.8,1172.9,235.1,1170.8,234.7z"/>
	<path class="st0" d="M990.4,42.1c1.9,0.5,3.7,1.4,5.3,2.6c0.6,0.5,2.6-0.4,2-0.9c-1.8-1.4-3.8-2.4-6-3
		C991,40.7,989.2,41.8,990.4,42.1z"/>
	<path class="st0" d="M883.2,162.2c3.1-4.2,7.1-3.8,11.6-3.9c3.5,0,15.8-1.5,14.4,4.3c0,0.1,0.1,0.2,0.1,0.1c0.2-0.9,1.1-3.1,0.2-4
		c-0.7-0.9-3.7-0.5-4.6-0.5c-2.8-0.1-5.5-0.2-8.3-0.2c-3.1,0-8.5-1.1-11.2,0.5c-3,1.7-3.8,7.4-4.8,10.3c0,0,0,0,0,0
		C881.4,166.9,882,164,883.2,162.2z"/>
	<path class="st0" d="M892.4,161.7c-1.5,2-3,4-4.4,6c-0.5,0.8,0.3,2.6,1.1,1.5c1.5-2.1,2.9-4.1,4.3-6.2
		C893.7,162.4,893.1,160.8,892.4,161.7z"/>
	<path class="st0" d="M901.8,162.1c-0.8,1-1.6,2-2.3,3c-0.7,1.1-1.7,2.1-2.1,3.4c-0.2,0.6,0.1,2.1,1,1.4c0.9-0.7,1.5-2,2.1-3
		c0.7-1.2,1.4-2.3,2-3.5C902.7,163.1,902.5,161.4,901.8,162.1z"/>
</g>
</svg>
